<?xml version="1.0" encoding="UTF-8"?>
<svg version="1.1" viewBox="0 0 2012 1680" width="1280" height="1280" xmlns="http://www.w3.org/2000/svg">
<path transform="translate(43,700)" d="m0 0h233l9 3 9 7 5 9 1 4 1 18v129l2 72v29l-6 9-7 2 1-2h-24l-38 1-15 1-11 2-18 1h-54l-67-1-5-2-18-3-10-5-7-8-4-11v-230l4-11 7-8z" fill="#F5C237"/>
<path transform="translate(43,1036)" d="m0 0h233l9 3 8 6 5 8 3 9 3 17v29l-2 50-1 37-1 106-5 8-4 3-10 3-21 1h-213l-9-2-9-6-6-8-3-9v-231l4-10 7-8 7-4z" fill="#F5C237"/>
<path transform="translate(1387,700)" d="m0 0h233l9 3 8 6 5 9 2 7v227l-2 11-6 10-8 5-2 1-16 1-61 1-32 1-18 2h-30l-18-2-61-2-9-2-8-6-5-6-4-10v-234l5-10 4-5 9-5z" fill="#F5C237"/>
<path transform="translate(1387,28)" d="m0 0h232l11 4 8 7 5 10 1 5v224l-1 11-5 14-7 3-3 1-25 1-61 1-33 1-7 1h-48l-32-2-32-1-9-2-8-6-5-6-4-10v-233l4-9 7-8z" fill="#F5C237"/>
<path transform="translate(379,700)" d="m0 0h232l10 3 8 6 5 8 2 8 1 23v103l-1 101-2 13-5 9-9 4-2 1-17 1-117 1-33 1h-17l-52-2-8-2-8-5-6-7-4-11v-232l4-9 4-6 7-5z" fill="#F5C237"/>
<path transform="translate(380,28)" d="m0 0h231l11 4 8 7 5 9 2 15v100l-1 109-2 32-3 3-32 1h-216l-9-2-7-4-7-8-4-10v-233l6-12 8-7z" fill="#F5C237"/>
<path transform="translate(378,364)" d="m0 0h234l9 3 8 6 5 8 2 6 1 9v87l-1 130-1 13-3 9-3 7-2 1-18 1h-226l-9-2-8-5-6-7-4-11v-232l4-10 5-6 10-6z" fill="#F5C237"/>
<path transform="translate(1051,28)" d="m0 0h231l10 3 6 4 6 7 3 7 1 5v221l-1 15-2 9-1 6-7 2-36 2h-91l-116-1-9-2-8-6-5-6-4-11v-231l4-10 7-8z" fill="#F5C237"/>
<path transform="translate(378,1036)" d="m0 0h234l9 3 9 7 6 12 1 9v105l-1 119-2 10-5 8-7 4-5 2-17 1h-217l-9-2-8-5-6-7-4-11v-233l5-10 4-5 10-6z" fill="#F5C237"/>
<path transform="translate(715,364)" d="m0 0h233l9 3 8 6 5 8 2 7v224l-1 14-5 15-3 3-121 1-124-1-9-2-8-6-5-6-4-10v-233l4-10 4-5 7-5z" fill="#F5C237"/>
<path transform="translate(715,28)" d="m0 0h232l11 4 8 7 5 9 1 5v229l-1 21-4 4-23 1h-225l-10-2-8-6-5-6-4-11v-232l4-9 7-8z" fill="#F5C237"/>
<path transform="translate(1051,364)" d="m0 0h233l9 3 8 6 5 9 2 7 1 20v42l-1 164-2 13-6 12-6 3-11 1h-229l-9-2-8-6-5-6-4-11v-232l4-10 5-6 10-6z" fill="#F5C237"/>
<path transform="translate(43,364)" d="m0 0h233l9 3 8 6 6 10 1 5v236l-4 14-2 4-3 1-28 1h-217l-8-2-9-6-6-8-3-9v-231l4-10 7-8 7-4z" fill="#F5C237"/>
<path transform="translate(714,1036)" d="m0 0h234l9 3 8 6 6 10 1 4 1 14v30l-1 185-1 9-6 10-6 5-7 3-14 1h-219l-9-2-8-5-6-7-4-10v-234l6-12 9-7z" fill="#F5C237"/>
<path transform="translate(1387,364)" d="m0 0h233l9 3 8 6 5 9 2 7v226l-1 10-6 12-5 4-4 2-12 1h-226l-9-2-8-6-5-6-4-10v-234l5-10 4-5 10-6z" fill="#F5C237"/>
<path transform="translate(715,700)" d="m0 0h233l9 3 8 6 5 8 2 7v228l-1 10-5 10-4 4-8 3-18 1h-218l-9-2-8-6-5-6-4-10v-234l5-10 5-5 8-5z" fill="#F5C237"/>
<path transform="translate(1051,700)" d="m0 0h232l10 3 10 9 4 8 1 5v227l-1 9-6 11-5 4-6 3-14 1h-222l-9-2-8-6-5-6-4-10v-233l4-10 4-5 7-5z" fill="#F5C237"/>
<path transform="translate(1387,1036)" d="m0 0h233l9 3 8 6 5 8 2 8v226l-1 9-5 9-5 5-6 4-3 1-14 1h-219l-9-2-8-5-6-7-4-10v-234l6-12 9-7z" fill="#F5C237"/>
<path transform="translate(1050,1036)" d="m0 0h234l9 3 8 6 5 8 2 7v227l-1 9-5 9-5 5-10 5-13 1h-219l-9-2-8-5-6-7-4-11v-233l5-10 4-5 10-6z" fill="#F5C237"/>
<path transform="translate(379,1372)" d="m0 0h232l10 3 8 6 5 8 2 7 1 89-1 139-1 9-7 11-10 6-4 1-19 1h-211l-10-2-9-6-6-8-3-9v-232l4-10 5-6 10-6z" fill="#F5C237"/>
<path transform="translate(1723,364)" d="m0 0h233l9 3 8 6 5 9 2 8v224l-2 12-6 9-7 6-5 2-13 1h-220l-10-2-8-6-5-6-4-10v-233l4-9 5-7 10-6z" fill="#F5C237"/>
<path transform="translate(1722,1036)" d="m0 0h234l9 3 8 6 5 9 2 7v225l-2 12-6 9-6 5-7 3-13 1h-219l-9-2-8-5-6-7-4-11v-233l5-10 4-5 10-6z" fill="#F5C237"/>
<path transform="translate(1723,700)" d="m0 0h232l10 3 10 9 4 8 1 6v225l-1 9-6 10-8 7-5 2-14 1h-220l-9-2-8-6-5-6-4-10v-233l4-10 4-5 7-5z" fill="#F5C237"/>
<path transform="translate(43,1372)" d="m0 0h232l8 2 9 6 6 9 2 6v229l-2 12-6 8-3 3-11 4-23 1h-208l-9-2-9-6-6-8-3-9v-231l4-10 7-8 7-4z" fill="#F5C237"/>
<path transform="translate(715,1372)" d="m0 0h233l9 3 8 6 5 8 2 7v227l-1 9-6 10-7 6-8 3-20 1h-211l-9-2-9-6-5-6-4-11v-233l5-10 4-5 9-5z" fill="#F5C237"/>
<path transform="translate(1051,1372)" d="m0 0h232l10 3 8 6 5 8 2 8v226l-1 9-6 10-7 6-8 3-19 1h-211l-10-2-9-6-5-6-4-11v-232l4-10 5-6 10-6z" fill="#F5C237"/>
<path transform="translate(1387,1372)" d="m0 0h233l9 3 8 6 5 8 2 8v225l-2 12-6 9-6 5-8 3-22 1h-209l-9-2-9-6-5-6-4-10v-234l5-10 4-5 9-5z" fill="#F5C237"/>
<path transform="translate(1723,28)" d="m0 0h232l11 4 8 7 5 10 1 5v224l-2 12-6 9-7 6-5 2-13 1h-221l-9-2-8-6-5-6-4-11v-232l4-9 7-8z" fill="#F5C237"/>
<path transform="translate(1723,1372)" d="m0 0h232l10 3 7 5 6 10 2 8v222l-1 11-5 10-8 7-8 3-20 1h-210l-10-2-9-6-5-6-4-11v-232l4-10 4-5 7-5z" fill="#F5C237"/>
<path transform="translate(43,700)" d="m0 0h233l9 3 9 7 5 9 1 4 1 18v129l2 72v29l-6 9-7 2 1-2h-24l-38 1-15 1-11 2-18 1h-54l-67-1-5-2-18-3-10-5-7-8-4-11v-230l4-11 7-8zm1 20-3 2-1 7v226l4 5h229l5-2 2-6v-225l-2-5-4-2z" fill="#030202"/>
<path transform="translate(230,94)" d="m0 0 7 1 6 5 2 5v39l-5 8-1 27-2 13-10 3 4 3 10 3 3 12 7 2 1 2v22l-2 6-146 1-13-3-9-6-8-11-2-6v-18l6-14v-31l4-11 7-6 20-8 53-17 60-19zm-69 85 1 2 8 2 38 1 5-1-1-3z" fill="#090604"/>
<path transform="translate(1387,700)" d="m0 0h233l9 3 8 6 5 9 2 7v227l-2 11-6 10-8 5-2 1-16 1-61 1-32 1-18 2h-30l-18-2-61-2-9-2-8-6-5-6-4-10v-234l5-10 4-5 9-5zm1 20-3 2-1 6v225l2 5 3 2h223l8-1 3-2 1-12v-218l-2-5-4-2z" fill="#030202"/>
<path transform="translate(43,1036)" d="m0 0h233l9 3 8 6 5 8 3 9 3 17v29l-2 50-1 37-1 106-5 8-4 3-10 3-21 1h-213l-9-2-9-6-6-8-3-9v-231l4-10 7-8 7-4zm1 20-3 2-1 7v224l3 6 2 1h228l5-3 2-4v-226l-2-5-4-2z" fill="#030102"/>
<path transform="translate(1387,28)" d="m0 0h232l11 4 8 7 5 10 1 5v224l-1 11-5 14-7 3-3 1-25 1-61 1-33 1-7 1h-48l-32-2-32-1-9-2-8-6-5-6-4-10v-233l4-9 7-8zm1 20-3 2-1 6v227l4 5h230l5-4 1-3v-226l-2-5-4-2z" fill="#040304"/>
<path transform="translate(379,700)" d="m0 0h232l10 3 8 6 5 8 2 8 1 23v103l-1 101-2 13-5 9-9 4-2 1-17 1-117 1-33 1h-17l-52-2-8-2-8-5-6-7-4-11v-232l4-9 4-6 7-5zm1 20-3 2-1 5v226l2 5 2 2h229l5-3 2-5v-226l-2-4-4-2z" fill="#040303"/>
<path transform="translate(380,28)" d="m0 0h231l11 4 8 7 5 9 2 15v100l-1 109-2 32-3 3-32 1h-216l-9-2-7-4-7-8-4-10v-233l6-12 8-7zm0 20-3 2-1 7v224l2 5 3 2h229l5-4 1-3v-227l-2-4-4-2z" fill="#030203"/>
<path transform="translate(1387,364)" d="m0 0h233l9 3 8 6 5 9 2 7v226l-1 10-6 12-5 4-4 2-12 1h-226l-9-2-8-6-5-6-4-10v-234l5-10 4-5 10-6zm2 20-4 2-1 5v226l3 6 2 1h223l8-1 3-3 1-9v-219l-2-6-4-2z" fill="#020102"/>
<path transform="translate(378,364)" d="m0 0h234l9 3 8 6 5 8 2 6 1 9v87l-1 130-1 13-3 9-3 7-2 1-18 1h-226l-9-2-8-5-6-7-4-11v-232l4-10 5-6 10-6zm2 20-3 2-1 6v226l3 5 2 1h228l6-4 1-9v-221l-2-4-3-2z" fill="#030202"/>
<path transform="translate(1722,1036)" d="m0 0h234l9 3 8 6 5 9 2 7v225l-2 12-6 9-6 5-7 3-13 1h-219l-9-2-8-5-6-7-4-11v-233l5-10 4-5 10-6zm2 20-3 2-1 6v225l3 6 2 1h223l8-1 3-3 1-156v-73l-2-5-5-2z" fill="#020102"/>
<path transform="translate(1723,364)" d="m0 0h233l9 3 8 6 5 9 2 8v224l-2 12-6 9-7 6-5 2-13 1h-220l-10-2-8-6-5-6-4-10v-233l4-9 5-7 10-6zm1 20-3 2-1 6v225l2 5 3 2h223l8-1 3-3 1-149v-80l-2-5-4-2z" fill="#020102"/>
<path transform="translate(1051,28)" d="m0 0h231l10 3 6 4 6 7 3 7 1 5v221l-1 15-2 9-1 6-7 2-36 2h-91l-116-1-9-2-8-6-5-6-4-11v-231l4-10 7-8zm1 20-3 2-1 7v225l3 5 2 1h229l5-4 1-4v-226l-3-5-3-1z" fill="#030202"/>
<path transform="translate(1723,700)" d="m0 0h232l10 3 10 9 4 8 1 6v225l-1 9-6 10-8 7-5 2-14 1h-220l-9-2-8-6-5-6-4-10v-233l4-10 4-5 7-5zm1 20-3 2-1 5v226l2 5 3 2h228l5-3 1-1 1-155v-74l-2-5-5-2z" fill="#020102"/>
<path transform="translate(378,1036)" d="m0 0h234l9 3 9 7 6 12 1 9v105l-1 119-2 10-5 8-7 4-5 2-17 1h-217l-9-2-8-5-6-7-4-11v-233l5-10 4-5 10-6zm2 20-3 2-1 7v224l3 6 1 1h229l6-3 1-4v-227l-2-4-4-2z" fill="#040202"/>
<path transform="translate(1051,1372)" d="m0 0h232l10 3 8 6 5 8 2 8v226l-1 9-6 10-7 6-8 3-19 1h-211l-10-2-9-6-5-6-4-11v-232l4-10 5-6 10-6zm1 20-3 2-1 7v223l3 7 4 1h190l39-1 3-3 1-9v-220l-2-5-4-2z" fill="#020102"/>
<path transform="translate(1723,1372)" d="m0 0h232l10 3 7 5 6 10 2 8v222l-1 11-5 10-8 7-8 3-20 1h-210l-10-2-9-6-5-6-4-11v-232l4-10 4-5 7-5zm1 20-3 2-1 7v223l3 7 2 1h221l10-1 4-7v-225l-2-5-5-2z" fill="#020102"/>
<path transform="translate(715,364)" d="m0 0h233l9 3 8 6 5 8 2 7v224l-1 14-5 15-3 3-121 1-124-1-9-2-8-6-5-6-4-10v-233l4-10 4-5 7-5zm1 20-3 2-1 5v226l3 5 2 2h229l5-4 1-3v-226l-2-5-4-2z" fill="#020102"/>
<path transform="translate(1723,28)" d="m0 0h232l11 4 8 7 5 10 1 5v224l-2 12-6 9-7 6-5 2-13 1h-221l-9-2-8-6-5-6-4-11v-232l4-9 7-8zm1 20-3 2-1 7v224l3 6 1 1h229l5-3 2-4v-226l-2-5-6-2z" fill="#020102"/>
<path transform="translate(1387,1036)" d="m0 0h233l9 3 8 6 5 8 2 8v226l-1 9-5 9-5 5-6 4-3 1-14 1h-219l-9-2-8-5-6-7-4-10v-234l6-12 9-7zm1 20-3 2-1 5v228l5 5h229l5-4 1-13v-216l-2-5-4-2z" fill="#020102"/>
<path transform="translate(715,28)" d="m0 0h232l11 4 8 7 5 9 1 5v229l-1 21-4 4-23 1h-225l-10-2-8-6-5-6-4-11v-232l4-9 7-8zm1 20-3 2-1 6v227l4 5h230l5-4 1-3v-227l-2-4-3-2z" fill="#020102"/>
<path transform="translate(1051,364)" d="m0 0h233l9 3 8 6 5 9 2 7 1 20v42l-1 164-2 13-6 12-6 3-11 1h-229l-9-2-8-6-5-6-4-11v-232l4-10 5-6 10-6zm1 20-3 2-1 6v225l3 6 2 1h229l5-3 1-4v-226l-2-5-3-2z" fill="#030202"/>
<path transform="translate(1387,1372)" d="m0 0h233l9 3 8 6 5 8 2 8v225l-2 12-6 9-6 5-8 3-22 1h-209l-9-2-9-6-5-6-4-10v-234l5-10 4-5 9-5zm1 20-3 2-1 6v224l3 7 4 1h200l29-1 3-3 1-4v-225l-2-5-4-2z" fill="#020102"/>
<path transform="translate(43,364)" d="m0 0h233l9 3 8 6 6 10 1 5v236l-4 14-2 4-3 1-28 1h-217l-8-2-9-6-6-8-3-9v-231l4-10 7-8 7-4zm1 20-3 2-1 6v225l3 5 2 2h229l5-4 1-3v-226l-1-5-5-2z" fill="#020102"/>
<path transform="translate(714,1036)" d="m0 0h234l9 3 8 6 6 10 1 4 1 14v30l-1 185-1 9-6 10-6 5-7 3-14 1h-219l-9-2-8-5-6-7-4-10v-234l6-12 9-7zm3 20-4 2-1 5v227l4 6h230l2-1v-2l3-1 1-3v-226l-1-5-5-2z" fill="#030102"/>
<path transform="translate(715,700)" d="m0 0h233l9 3 8 6 5 8 2 7v228l-1 10-5 10-4 4-8 3-18 1h-218l-9-2-8-6-5-6-4-10v-234l5-10 5-5 8-5zm1 20-3 3-1 6v225l3 5 2 1h223l8-1 3-3 1-10v-220l-2-4-3-2z" fill="#020102"/>
<path transform="translate(379,1372)" d="m0 0h232l10 3 8 6 5 8 2 7 1 89-1 139-1 9-7 11-10 6-4 1-19 1h-211l-10-2-9-6-6-8-3-9v-232l4-10 5-6 10-6zm1 20-3 2-1 6v224l3 7 2 1h228l5-3 2-6v-226l-4-4-2-1z" fill="#020102"/>
<path transform="translate(43,1372)" d="m0 0h232l8 2 9 6 6 9 2 6v229l-2 12-6 8-3 3-11 4-23 1h-208l-9-2-9-6-6-8-3-9v-231l4-10 7-8 7-4zm1 20-3 2-1 7v223l3 7 5 1h200l28-1 3-2 1-6v-224l-2-5-4-2z" fill="#020102"/>
<path transform="translate(1051,700)" d="m0 0h232l10 3 10 9 4 8 1 5v227l-1 9-6 11-5 4-6 3-14 1h-222l-9-2-8-6-5-6-4-10v-233l4-10 4-5 7-5zm1 20-3 3-1 5v225l2 5 2 2h230l5-4 1-9v-220l-2-5-3-2z" fill="#020102"/>
<path transform="translate(1050,1036)" d="m0 0h234l9 3 8 6 5 8 2 7v227l-1 9-5 9-5 5-10 5-13 1h-219l-9-2-8-5-6-7-4-11v-233l5-10 4-5 10-6zm2 20-3 2-1 5v226l3 6 2 1h228l6-3 1-10v-220l-2-5-3-2z" fill="#020102"/>
<path transform="translate(715,1372)" d="m0 0h233l9 3 8 6 5 8 2 7v227l-1 9-6 10-7 6-8 3-20 1h-211l-9-2-9-6-5-6-4-11v-233l5-10 4-5 9-5zm1 20-3 3-1 5v225l3 6 2 1h219l12-1v-2h2l2-4v-226l-2-5-4-2z" fill="#020102"/>
<path transform="translate(46,28)" d="m0 0h229l10 3 8 6 5 8 2 9v219l-1 16-2 5-2 9-2 2-10 2-27 1h-209l-9-2-7-4-7-8-3-7-1-5v-233l4-7 6-7 10-6zm117 19-121 1-2 2v236l2 2h235l2-1 1-4v-232l-2-3-81-1z" fill="#040202"/>
<path transform="translate(227,105)" d="m0 0h1l1 40-5 3-49 15-50 16h-8l-12-2-15 3h-3v-27l2-4 8-4 34-11 45-14 21-7 24-7z" fill="#F5B231"/>
<path transform="translate(100,186)" d="m0 0h10l10 4 7 8 3 7 1 6v13l68-1 37 1v13h-138l-9-4-6-7-3-7v-15l4-8 8-7z" fill="#F5B231"/>
<path transform="translate(825,1456)" d="m0 0h15l11 4 7 6 5 10 1 5v7l-4 10-16 20-1 2-1 9-1 1h-14l-1-1v-10l4-11 9-10 5-5 3-5v-7l-3-6-8-3h-7l-5 3-5 9-7-1-8-4 1-5 6-9 7-6z" fill="#020102"/>
<path transform="translate(825,1120)" d="m0 0h15l11 4 7 6 5 10 1 11-3 9-4 6-12 14-2 5-1 8-4 2-10-1-3-3 2-12 4-8 5-6 6-5 4-6 1-9-3-6-8-3-10 1-5 6-3 5-6-1-8-4 1-5 6-9 7-6z" fill="#020102"/>
<path transform="translate(1497,784)" d="m0 0h16l10 4 7 6 5 10 1 4v9l-6 12-9 10-6 9-1 9-1 1h-14l-1-1v-10l4-11 9-10 5-5 3-5v-8l-4-6-7-2-10 1-4 5-3 6-7-1-8-4 1-5 6-9 7-6z" fill="#020102"/>
<path transform="translate(825,784)" d="m0 0h15l11 4 7 6 5 10 1 4v8l-4 10-16 20-1 2-1 9-1 1h-14l-1-1v-10l4-11 9-10 5-5 3-5v-7l-4-7-7-2-10 1-5 6-2 5-7-1-8-4 1-5 6-9 7-6z" fill="#020102"/>
<path transform="translate(826,112)" d="m0 0h14l11 4 7 6 5 10 1 5v7l-3 8-6 9-10 11-2 4-1 9-1 1h-13l-2-2v-9l4-11 8-9 5-4 4-7v-7l-3-6-8-3-10 1-5 6-2 5-7-1-8-4 1-5 6-9 7-6z" fill="#020102"/>
<path transform="translate(1161,1456)" d="m0 0h15l11 4 7 6 5 10 1 4v8l-4 10-16 20-2 11-4 2-11-1-2-4 4-16 7-9 7-6 4-7v-8l-3-5-8-3-10 1-4 5-3 6-7-1-8-4 1-5 6-9 7-6z" fill="#020102"/>
<path transform="translate(1497,1456)" d="m0 0h15l11 4 7 6 5 10 1 5v8l-6 12-9 10-6 9-1 9-1 1h-14l-1-1v-10l4-11 8-9 5-4 4-7v-8l-4-6-7-2h-7l-5 3-5 9-7-1-8-4 1-5 6-9 7-6z" fill="#020102"/>
<path transform="translate(153,784)" d="m0 0h15l11 4 7 6 5 10 1 4v8l-4 10-16 20-1 2-1 9-1 1h-14l-1-1v-10l4-11 8-9 5-4 4-7v-8l-4-6-7-2-10 1-4 5-3 6-7-1-8-4 1-5 6-9 7-6z" fill="#020102"/>
<path transform="translate(826,448)" d="m0 0h14l11 4 7 6 5 10 1 5v7l-4 10-16 20-3 12-3 1-10-1-3-3 2-12 4-8 5-6 7-6 4-8-1-9-5-5-11-1-5 2-4 5-3 5-6-1-8-4 1-5 6-9 7-6z" fill="#020102"/>
<path transform="translate(1497,112)" d="m0 0h15l11 4 7 6 5 10 1 5v7l-4 10-8 10-7 8-2 4-1 9-1 1h-14l-1-1v-10l4-11 8-9 5-4 4-7v-8l-4-6-7-2h-7l-5 3-5 9-7-1-8-4 1-5 6-9 7-6z" fill="#020102"/>
<path transform="translate(154,1456)" d="m0 0h14l11 4 7 6 5 10 1 5v7l-4 10-16 20-1 2-1 9-1 1h-13l-2-2v-9l4-11 8-9 5-4 4-7v-7l-4-7-7-2h-7l-5 3-5 9-7-1-8-4 1-5 6-9 7-6z" fill="#020102"/>
<path transform="translate(1497,1120)" d="m0 0h15l11 4 7 6 5 10 1 5v7l-4 10-16 20-1 2-1 9-4 2-10-1-3-3 2-11 4-9 7-8 5-5 4-6v-7l-3-6-3-2-5-1h-7l-5 3-6 9-6-1-8-4 1-5 6-9 7-6z" fill="#020102"/>
<path transform="translate(154,1120)" d="m0 0h14l11 4 7 6 5 10 1 5v7l-4 10-16 20-1 2-1 9-4 2-10-1-3-3 2-12 4-8 7-8 5-4 4-7v-7l-3-6-3-2-11-1-5 2-4 5-3 5-6-1-8-4 1-5 6-9 7-6z" fill="#020102"/>
<path transform="translate(1833,1456)" d="m0 0h15l11 4 7 6 5 10 1 4v8l-4 10-16 20-1 2-1 9-1 1h-14l-1-1v-9l3-10 7-9 7-6 4-7v-8l-3-5-8-3-9 1-5 5-4 6-6-1-8-4 1-5 6-9 7-6z" fill="#020102"/>
<path transform="translate(1833,784)" d="m0 0h15l11 4 7 6 5 10 1 4v8l-4 10-16 20-2 11-1 1h-14l-1-1v-9l3-10 7-9 7-6 4-7v-8l-3-5-8-3-9 1-5 5-4 6-6-1-8-4 1-5 6-9 7-6z" fill="#020102"/>
<path transform="translate(1497,448)" d="m0 0h15l11 4 7 6 5 10 1 5v7l-4 10-9 11-7 9-1 2-1 9-1 1h-13l-3-3 2-12 4-8 7-8 5-5 4-6v-7l-3-6-8-3h-7l-5 3-6 9-6-1-8-4 1-5 6-9 7-6z" fill="#020102"/>
<path transform="translate(1161,112)" d="m0 0h14l10 3 8 6 5 8 2 7v8l-4 10-9 11-7 9-2 11-4 2-11-1-1-1v-9l3-10 7-9 7-6 4-7v-8l-3-5-8-3-10 1-4 5-3 6-7-1-8-4 1-5 6-9 7-6z" fill="#020102"/>
<path transform="translate(1833,1120)" d="m0 0h15l11 4 7 6 5 10 1 4v8l-4 10-16 20-1 2-1 10h-15l-1-1v-10l5-12 7-8 5-5 3-4 1-3v-7l-4-6-6-2h-8l-5 3-6 9-6-1-8-4 1-5 6-9 7-6z" fill="#020102"/>
<path transform="translate(489,784)" d="m0 0h15l11 4 7 6 5 10 1 4v8l-4 10-16 20-2 11-1 1h-14l-1-1v-9l3-10 7-9 7-6 4-7v-8l-3-5-8-3-9 1-5 5-4 6-6-1-7-3-1-4 6-10 8-7z" fill="#020102"/>
<path transform="translate(154,448)" d="m0 0h14l11 4 6 5 5 8 2 8v7l-4 10-16 20-1 2-1 9-1 1h-13l-3-3 2-12 4-8 7-8 5-4 4-7v-7l-3-6-8-3-10 1-5 6-3 5-6-1-8-4 1-5 6-9 7-6z" fill="#020102"/>
<path transform="translate(1833,112)" d="m0 0h15l11 4 7 6 5 10 1 4v8l-4 10-16 20-2 11-1 1h-14l-1-1v-9l3-10 7-9 7-6 4-7v-8l-4-6-7-2-9 1-5 5-4 6-6-1-8-4 1-5 6-9 7-6z" fill="#020102"/>
<path transform="translate(489,1456)" d="m0 0h15l11 4 7 6 5 10 1 4v8l-4 10-16 20-2 11-1 1h-14l-1-1v-9l3-10 7-9 7-6 4-7v-8l-4-6-7-2-9 1-5 5-4 6-6-1-8-4 1-5 6-9 7-6z" fill="#020102"/>
<path transform="translate(1834,448)" d="m0 0h14l11 4 7 6 5 10 1 4v8l-4 10-9 11-7 9-1 2-1 10-4 1-11-1-1-1v-10l5-12 7-8 5-4 4-7v-8l-4-6-7-2-9 1-5 5-4 6-6-1-8-4 1-5 6-9 7-6z" fill="#020102"/>
<path transform="translate(490,448)" d="m0 0h14l11 4 7 6 5 10 1 4v8l-4 10-9 11-7 9-2 11-4 2-11-1-1-1v-10l5-12 6-7 6-5 4-7v-8l-4-6-7-2-9 1-5 5-4 6-6-1-8-4 1-5 6-9 7-6z" fill="#020102"/>
<path transform="translate(1157,784)" d="m0 0h15l11 4 7 6 5 10 1 4v7l-3 9-8 11-8 9-2 4-1 9-1 1h-14l-1-1v-10l4-10 6-8 7-6 4-7v-9l-4-5-7-2h-7l-5 3-6 9-6-1-8-4 1-5 6-9 7-6z" fill="#020102"/>
<path transform="translate(1161,448)" d="m0 0h15l11 4 7 6 5 10 1 5v7l-4 10-16 20-1 2-1 10-4 1-11-1-1-1v-10l5-12 3-4h2v-2l7-6 4-8v-7l-4-6-7-2-9 1-5 5-4 6-6-1-7-3-1-4 6-10 8-7z" fill="#020102"/>
<path transform="translate(489,112)" d="m0 0h15l11 4 6 5 5 8 2 7v8l-4 10-9 11-7 9-2 11-1 1h-14l-1-1v-9l3-10 7-9 7-6 4-7v-8l-4-6-7-2-9 1-5 5-4 6-6-1-7-3-1-4 6-10 8-7z" fill="#020102"/>
<path transform="translate(490,1120)" d="m0 0h14l11 4 7 6 5 10 1 4v8l-4 10-16 20-1 2-1 9-1 1h-14l-1-1v-10l5-12 3-4h2l1-3 6-5 4-8v-8l-4-5-6-2h-8l-6 4-5 8-6-1-8-4 1-5 6-9 7-6z" fill="#020102"/>
<path transform="translate(1162,1120)" d="m0 0h13l10 3 8 6 5 8 2 7v8l-4 10-9 11-7 9-2 11-1 1h-13l-2-1v-10l4-10 4-6 8-7 5-8v-8l-3-5-8-3h-7l-5 3-6 9-6-1-8-4 1-5 6-9 7-6z" fill="#020102"/>
<path transform="translate(99,192)" d="m0 0h10l6 3 8 8 1 2v13l-4 7-8 6-10 1-9-4-5-4-3-10 2-11 4-6 5-4z" fill="#020102"/>
<path transform="translate(219,159)" d="m0 0 2 1v24l-5 1h-12l4-2h5l-1-2-50-1 8 2 27 1v1h-55l2-2 64-20z" fill="#FDF5E6"/>
<path transform="translate(135,193)" d="m0 0h97v1l-5 1 4 3 4 2h-98z" fill="#FCF3E0"/>
<path transform="translate(140,208)" d="m0 0h84l1 1v6h-26v6l-2 1v-7h-54l-3-1z" fill="#FBE7C1"/>
<path transform="translate(59,981)" d="m0 0h155l-3 2-26 2h-54l-67-1-5-2z" fill="#FEFEFE"/>
<path transform="translate(1501,869)" d="m0 0h9l5 3 2 6-1 8-3 5-2 1h-10l-5-4-1-3v-10l4-5z" fill="#020102"/>
<path transform="translate(1501,1541)" d="m0 0h9l5 3 2 7-1 7-3 5-2 1h-10l-5-4-1-3v-10l4-5z" fill="#020102"/>
<path transform="translate(830,1541)" d="m0 0h8l4 2 3 7v6l-3 6-3 2h-10l-5-4-1-3v-10l5-5z" fill="#020102"/>
<path transform="translate(1162,869)" d="m0 0h9l5 5 1 9-4 8-2 1h-10l-4-2-2-5v-9l3-5z" fill="#020102"/>
<path transform="translate(1166,1541)" d="m0 0h9l5 5 1 8-3 8-3 2h-10l-5-4-1-3v-10l5-5z" fill="#020102"/>
<path transform="translate(158,869)" d="m0 0h8l4 2 2 3 1 9-3 7-3 2h-10l-5-4-1-3v-10l4-5z" fill="#020102"/>
<path transform="translate(1502,533)" d="m0 0h9l5 5 1 9-4 8-2 1h-10l-5-4-1-3v-10l5-5z" fill="#020102"/>
<path transform="translate(1838,1205)" d="m0 0h8l5 3 2 7-1 7-3 5-2 1h-10l-5-4-1-3v-10l5-5z" fill="#020102"/>
<path transform="translate(1502,1205)" d="m0 0h9l5 5 1 9-4 8-2 1h-10l-5-4-1-3v-9l3-5z" fill="#020102"/>
<path transform="translate(1838,869)" d="m0 0h9l5 5 1 8-3 8-3 2h-10l-5-4-1-3v-9l3-5z" fill="#020102"/>
<path transform="translate(1838,533)" d="m0 0h8l5 3 2 7-1 7-3 5-2 1h-10l-5-4-1-3v-10l5-5z" fill="#020102"/>
<path transform="translate(494,533)" d="m0 0h8l5 3 2 7-1 7-3 5-2 1h-10l-5-4-1-3v-10l5-5z" fill="#020102"/>
<path transform="translate(158,533)" d="m0 0h8l5 3 2 7-1 7-3 5-2 1h-10l-5-4-1-3v-10l5-5z" fill="#020102"/>
<path transform="translate(1502,197)" d="m0 0h8l5 3 2 10-3 8-3 2h-10l-5-4-1-3v-9l3-5z" fill="#020102"/>
<path transform="translate(195,166)" d="m0 0 3 1-3 1v10l16 1v1h-49l8 2 27 1v1h-55l2-2z" fill="#FDF8F0"/>
<path transform="translate(158,1541)" d="m0 0h8l5 3 2 10-3 8-3 2h-10l-5-4-1-3v-9l3-5z" fill="#020102"/>
<path transform="translate(1166,1205)" d="m0 0h8l6 5 1 9-4 8-2 1h-10l-5-4-1-3v-10l5-5z" fill="#020102"/>
<path transform="translate(830,869)" d="m0 0h8l4 2 2 3 1 8-3 8-3 2h-10l-5-4-1-3v-10l5-5z" fill="#020102"/>
<path transform="translate(830,197)" d="m0 0h8l6 5 1 9-3 7-3 2h-10l-5-4-1-3v-9l3-5z" fill="#020102"/>
<path transform="translate(830,1205)" d="m0 0h8l6 5 1 9-4 8-2 1h-10l-5-4-1-3v-9l3-5z" fill="#020102"/>
<path transform="translate(1838,1541)" d="m0 0h9l5 5v12l-3 5-2 1h-10l-5-5-1-2v-9l3-5z" fill="#020102"/>
<path transform="translate(494,1205)" d="m0 0h8l6 5 1 8-3 8-3 2h-10l-5-4-1-3v-9l3-5z" fill="#020102"/>
<path transform="translate(158,1205)" d="m0 0h8l6 5 1 9-4 8-2 1h-10l-5-4-1-3v-9l3-5z" fill="#020102"/>
<path transform="translate(494,869)" d="m0 0h8l6 5 1 7-3 9-3 2h-10l-5-4-1-3v-9l3-5z" fill="#020102"/>
<path transform="translate(1166,533)" d="m0 0h8l5 3 1 2v12l-3 5-2 1h-10l-5-4-1-3v-10l5-5z" fill="#020102"/>
<path transform="translate(830,533)" d="m0 0h8l6 5 1 8-3 8-3 2h-10l-5-4-1-3v-9l3-5z" fill="#020102"/>
<path transform="translate(1166,197)" d="m0 0h9l5 5v12l-3 5-2 1h-10l-5-5-1-2v-10l5-5z" fill="#020102"/>
<path transform="translate(1838,197)" d="m0 0h9l5 5v12l-3 5-2 1h-10l-5-5-1-2v-9l3-5z" fill="#020102"/>
<path transform="translate(494,1541)" d="m0 0h9l5 5v12l-3 5-2 1h-10l-5-5-1-2v-9l3-5z" fill="#020102"/>
<path transform="translate(494,197)" d="m0 0h9l5 5v12l-3 5-2 1h-10l-5-5-1-2v-9l3-5z" fill="#020102"/>
<path transform="translate(300,870)" d="m0 0h1l2 72v29l-6 9-7 2 1-2-11-1 3-2 7-4 6-7 3-9z" fill="#FCEBCA"/>
<path transform="translate(300,1062)" d="m0 0h1l3 17v29l-2 50-2-4z" fill="#FBE5BB"/>
<path transform="translate(505,1293)" d="m0 0h19l1 1 84 1v1h-229v-1l124-1z" fill="#F5B231"/>
<path transform="translate(104,201)" d="m0 0 10 1 1 4v8l-3 5-2 2h-3l2-5 3-3-2-4-2-1v7l-4 1v-6l3-3v-3l-5 2-2 3-1 10-3-2-1-7 3-6 2-2z" fill="#F3B030"/>
<path transform="translate(226,156)" d="m0 0h3l1 17v12h-6l-1-2v-24z" fill="#F6B335"/>
<path transform="translate(195,168)" d="m0 0h13l3 1v4h2v5l-1 1h-13l-4-1-1-6z" fill="#F7BD4F"/>
<path transform="translate(232,102)" d="m0 0 3 1 1 5v35l-4 1z" fill="#F6B231"/>
<path transform="translate(1451,981)" d="m0 0h66v1l-18 2h-30l-18-2z" fill="#FEFEFE"/>
<path transform="translate(85,219)" d="m0 0h2l2 5 7 5 6 2 16 1v2l3 2h-22l-8-4-1-2h3l-7-6z" fill="#F5C237"/>
<path transform="translate(160,177)" d="m0 0 3 1-1 2 8 2 27 1v1h-55l2-2z" fill="#FDF7EC"/>
<path transform="translate(970,288)" d="m0 0h1v15l-4 4h-14l3-2 5-3h2l2-4 4-7z" fill="#FBE5BB"/>
<path transform="translate(633,292)" d="m0 0h1v12l-3 3h-12l4-4 8-7z" fill="#FDF5E8"/>
<path transform="translate(224,161)" d="m0 0 4 4 1 19h-5z" fill="#FEFEFE"/>
<path transform="translate(295,970)" d="m0 0 2 1-4 10h-3l1-1-11-1 3-2 7-4z" fill="#FADBA1"/>
<path transform="translate(106,201)" d="m0 0m-2 0 2 2-6 6-1 10-3-2-1-7 3-6 2-2z" fill="#F5B331"/>
<path transform="translate(1304,293)" d="m0 0h1l-1 12-7 2h-6l5-4 3-1 2-4z" fill="#FCEFD6"/>
<path transform="translate(296,631)" d="m0 0 1 3-3 8-3 1h-11l-1-2 7-1 7-5z" fill="#FCEDD2"/>
<path transform="translate(967,631)" d="m0 0h1l-1 8-4 5h-12l4-2 8-5z" fill="#FCEBCB"/>
<path transform="translate(196,174)" d="m0 0 13 1 2 4h-12l-3-1z" fill="#020102"/>
<path transform="translate(241,223)" d="m0 0 3 1v13h-4v-13z" fill="#F5BE36"/>
<path transform="translate(1168,473)" d="m0 0 7 1 1 5-5 2-3-3v-3l-2-1z" fill="#F6B231"/>
<path transform="translate(631,632)" d="m0 0 1 3-3 7-2 1h-7l10-10z" fill="#FCEFD7"/>
<path transform="translate(89,191)" d="m0 0 2 1v3l-4 5-3 4v-2h-2l1-5z" fill="#F5BF36"/>
<path transform="translate(205,168)" d="m0 0 6 1 1 7-3-2-9-2v-3z" fill="#835F1B"/>
<path transform="translate(299,1292)" d="m0 0h1v9l-5 8-4 3-3-1 5-4 5-10z" fill="#FCEBCB"/>
<path transform="translate(295,296)" d="m0 0h1l-1 7-2 2-10 2-4-1 11-4z" fill="#FCECCE"/>
<path transform="translate(497,137)" d="m0 0 6 1 1 5-4 1-5-5z" fill="#F6B231"/>
<path transform="translate(1170,1145)" d="m0 0 5 1v6l-4 1v-2h-2l-1-5z" fill="#F6B231"/>
<path transform="translate(1841,137)" d="m0 0 6 1v5l-3 1-4-2-1-4z" fill="#F6B231"/>
<path transform="translate(497,1481)" d="m0 0 5 1 1 1v5l-5-1-3-5z" fill="#F6B231"/>
<path transform="translate(498,809)" d="m0 0 5 1 1 5-5 1-3-4v-2z" fill="#F6B231"/>
<path transform="translate(631,299)" d="m0 0h2l-2 4-4 3h-4l-4 1 4-4 4-3z" fill="#F9D081"/>
<path transform="translate(497,1145)" d="m0 0 6 1v5l-4 1v-2l-3-1-1-3z" fill="#F6B231"/>
<path transform="translate(1842,809)" d="m0 0 5 1v6l-5-1-2-5z" fill="#F6B231"/>
<path transform="translate(1841,1481)" d="m0 0 5 1 1 5-3 1-5-5z" fill="#F6B231"/>
<path transform="translate(1506,137)" d="m0 0 4 1 1 6-6-1-1-5z" fill="#F6B231"/>
<path transform="translate(162,1480)" d="m0 0 4 2 1 6-6-1-1-5h2z" fill="#F6B231"/>
<path transform="translate(833,809)" d="m0 0 5 2 1 4-4 1-5-5z" fill="#F6B231"/>
<path transform="translate(227,209)" d="m0 0h6v5l-4 1-2-1z" fill="#FADA9D"/>
<path transform="translate(85,219)" d="m0 0h2l2 5 7 5 3 2-6-1-7-6z" fill="#F5BB35"/>
<path transform="translate(1302,633)" d="m0 0 1 2-4 6-5 2-3-1 9-6z" fill="#FBE5BC"/>
<path transform="translate(1504,1482)" d="m0 0h6v5h-5z" fill="#F6B231"/>
</svg>
