<?xml version="1.0" encoding="UTF-8"?>
<svg version="1.1" viewBox="0 0 1660 1284" width="1280" height="1280" xmlns="http://www.w3.org/2000/svg">
<path transform="translate(916,193)" d="m0 0h38l15 1 7 3 5 5 3 6 1 85v865l-5 3-30 15-14 4-7 1h-10l-16-3-13-6-16-8-10-4-14-3h-24l-16 4-23 11-12 6-12 3h-21l-14-4-29-15-2-2v-948l3-9 4-5 8-4z" fill="#7B5BF1"/>
<path transform="translate(138,411)" d="m0 0h256l7 3 5 5 3 4 1 4v752l-11-1-15-4-17-8-16-8-11-3-7-1h-15l-18 4-17 8-16 8-16 4h-24l-15-4-32-16-11-3-7-1h-15l-16 3-5 2h-3l-1-21v-691l1-21 4-8 7-6z" fill="#FCCF4C"/>
<path transform="translate(1291,449)" d="m0 0h255l8 3 7 8 2 7v698l-10-3-17-4-18-1-14 2-16 5-16 8-15 7-16 3-16-1-13-4-24-13-18-6-6-1h-25l-19 5-20 10-15 7-9 2-1-1v-711l2-9 6-7z" fill="#7B5BF1"/>
<path transform="translate(1397,65)" d="m0 0h13l14 2 16 5 16 8 13 10 13 13 9 14 8 17 4 16 1 9v17l-2 14-5 16-8 16-7 9-9 10-9 8-13 8-16 7-16 4-6 1h-25l-18-4-16-7-11-7-11-9-8-8-11-16-7-15-4-13-2-10v-25l4-19 7-16 8-13 11-12 5-5 10-8 14-8 18-6 10-2z" fill="#7B5BF1"/>
<path transform="translate(1465,89)" d="m0 0 7 6 14 14 6 10 7 15 4 16 1 9v17l-2 14-5 16-8 16-7 9-9 10-9 8-13 8-16 7-16 4-6 1h-25v-2l-9-1-11-4-9-3-4-3 1-4 8-2 18 1 3-2 16-3 6 1h10l4-4 1-5h2l2-4 14-12 4-3h2l1-5 5-9h2l2-5 4-8 7-18 5-12 3-11v-22l-5-14-2-5 1-5 4 2 6 5v3l5 2-1-4v-3l-3-1-9-11-6-5-1-3z" fill="#7054DA"/>
<path transform="translate(1475,897)" d="m0 0h16l11 4 8 5 9 8 5 8 4 11v14l-4 11-8 10-5 5-8 5-12 3h-12l-12-3-9-5-5-4v-2h-2l-7-11-2-8v-16l4-13 8-10 9-7z" fill="#7054DA"/>
<path transform="translate(1365,532)" d="m0 0 9 1 9 2 9 5 8 6 8 11 4 11 1 10-3 11-6 10-9 10-12 7-8 1h-12l-12-4-10-6-7-7-6-11-2-12 1-12 4-9 4-6 8-8 10-6 7-3z" fill="#7054DA"/>
<path transform="translate(796,352)" d="m0 0h40l24 1 7 3 8 5 4 12v7l-5 10-5 4-10 3-19 1h-61l-15-2-8-3-5-2-4-9-1-9 3-9 6-7 5-2 4-1 22-1z" fill="#7054DA"/>
<path transform="translate(887,915)" d="m0 0h10l11 5 12 11 2 5h2l4 13-1 9-5 10-3 5-8 7-12 4h-10l-13-4-8-4-8-9-3-9v-14l3-9 4-6h2l2-4 8-6 6-3z" fill="#7054DA"/>
<path transform="translate(1464,618)" d="m0 0 10 2 10 5 8 8 6 12 1 10-3 10-1 2h-2l-2 5-8 7-8 4-8 2-12-1-9-5-8-7-5-10-2-9 2-13 5-9 10-8 9-4z" fill="#7054DA"/>
<path transform="translate(794,718)" d="m0 0h7l7 3v2l4 2 5 10 2 13v11l1 9-1 19-4 7-3 3-5 3-10 2-10-2-3-1v-2l-4-2-1-3-3-1-2-11-1-21 2-24 3-7 2-3h2v-2h2v-2l4-2z" fill="#7054DA"/>
<path transform="translate(1355,910)" d="m0 0h11l6 2 10 6 7 7 4 7 1 11-3 10h-2l-2 5-4 4-3 1-1 2-12 3h-11l-6-2-6-3-8-8-3-8v-14l4-9 6-7 9-6z" fill="#7054DA"/>
<path transform="translate(1367,122)" d="m0 0 11 1 3 4 7 4 11 9 2 1v2l4 1v2l5 2 1 7-3 5 1 3 4 2v3l4 1v2l6 2 3 3 5 4 2 1v2l5 2 1 3 4 1v2h2l1 3-1 4-7 1-10-6-11-7-6-4-11-6-7-6-9-5-4-3-5-2-7-6-1-4h-2v-5l2-3-1-5-2-2-1-7 3-5z" fill="#8B78F0"/>
<path transform="translate(975,197)" d="m0 0 4 2 4 6 1 3 1 85v865l-5 3-30 15-14 4h-5l4-2 16-6 26-13 5-5v-936l-3-13-3-2z" fill="#8B78EF"/>
<path transform="translate(777,625)" d="m0 0 12 1 5-1 4 1 17-1 21 1 5 4 3 8-3 9-5 3-11 1h-11l-13 1h-25l-8-2-5-4-1-5 1-12 7-1 1-2z" fill="#7054DA"/>
<path transform="translate(406,420)" d="m0 0 3 3 1 4v752l-11-1v-1l8-1v-706z" fill="#C7E8C0"/>
<path transform="translate(1415,730)" d="m0 0 8 1v2l5 1 4 4v2l3 1 5 10v8l-4 8-6 6-8 3h-13l-9-6-5-7-1-4v-8l3-8 5-8 9-4z" fill="#7054DA"/>
<path transform="translate(865,542)" d="m0 0 7 1v2l5 2 5 4v2h2l4 8-1 10-5 8-8 6-10 3-7-1-8-4-4-5-3-7-1-6 2-9 6-8 7-5z" fill="#7054DA"/>
<path transform="translate(707,196)" d="m0 0 2 1-8 11-2 11 1 51v178l-1 135v274l-1 266h-1v-911l3-9 4-5z" fill="#8B78F0"/>
<path transform="translate(1552,452)" d="m0 0 4 2 5 6 2 7v698l-10-3v-1l7-2 1-674-2-13-3-12-4-7z" fill="#8B78EF"/>
<path transform="translate(127,418)" d="m0 0 1 3-2 5-1 8v723l4 1-6 1-1-21v-691l1-21z" fill="#C7E8C0"/>
<path transform="translate(796,985)" d="m0 0 6 1 5 4 2 8 1 8v18l-3 12-4 5-4 1h-7l-7-3-3-4-2-9v-15l2-16 2-4 7-5z" fill="#7054DA"/>
<path transform="translate(1451,1078)" d="m0 0h9l6 3 7 7 3 6 1 8-3 8-5 5-4 3-9 2-11-2-5-5-4-5-2-9 2-7 3-7 8-6z" fill="#7054DA"/>
<path transform="translate(1347,781)" d="m0 0h11l8 4 7 8 1 3v8l-3 9-8 6-6 2h-11l-9-7-3-6-1-7 2-9 6-8z" fill="#7054DA"/>
<path transform="translate(915,428)" d="m0 0 9 2 5 7 1 5v26l-1 8-7 5h-11l-5-2-2-3-2-12v-10l1-14 2-6 3-4z" fill="#7054DA"/>
<path transform="translate(1283,453)" d="m0 0 2 1-5 9-3 13v563l-1 138 9-1 12-5 16-8 3 1-17 9-14 6-9 2-1-1v-711l2-9z" fill="#8B78F0"/>
<path transform="translate(1324,139)" d="m0 0 11 3 6 5 6 3 1 4 3 1 1 2 3 1 3 5 5 3 3 4v8l-4 3h-5l-18-10-13-8v-2l-5-1-5-9-1-3 1-5z" fill="#8B78F0"/>
<path transform="translate(803,462)" d="m0 0h7l6 2 2 1v2h2l4 8-1 7-2 3-6 3-11 1-14-1-7-4-2-7 2-8 12-6z" fill="#7054DA"/>
<path transform="translate(1396,1152)" d="m0 0 10 1 8 2v2l8 2v2l6 2 7 7 1 6v3 1h-10l-15-5-3-2-9-3-16-8-3-1v-2l-2-1 7-3 10-2z" fill="#7055DA"/>
<path transform="translate(1422,101)" d="m0 0 12 4 2 3 3 1 3 3 4 2v2l5 2 9 8 2 6-3 3h-8l-12-8-10-6v-2l-5-2-7-6-1-3 4-6z" fill="#8B78F0"/>
<path transform="translate(1329,1053)" d="m0 0 8 1 5 4v2l3 1 2 5-1 8-5 6-2 1h-12l-6-4-2-6v-7l3-6 3-3z" fill="#7054DA"/>
<path transform="translate(1305,133)" d="m0 0 2 1-2 7-2 14v21l1 3 1 14 8 20v2h2l1 5 5 2 6 12 4 2v2h2l7 8 7 5 11 6 3 2 9 3 13 4 5 1v1l-11-1-15-5-15-8-14-11-9-9-11-16-7-15-4-13-2-10v-25l4-19z" fill="#8B79EF"/>
<path transform="translate(912,796)" d="m0 0 9 2 5 6v6l-1 3-2 1h-11l-5-3-3-5 1-5 4-4z" fill="#7054DA"/>
<path transform="translate(1391,223)" d="m0 0 7 1 9 6 6 5-1 5-3 2-7-1-8-4-2-4-4-2 1-6z" fill="#8A77F0"/>
<path transform="translate(781,891)" d="m0 0 13 1 5 2v2l4 2 2 2v12l-3 7-4 4h-3v2h-2l-1-3 5-8 1-9-2-5-5-2-4-2-8-1v-3z" fill="#7054DA"/>
<path transform="translate(868,1084)" d="m0 0 6 1 3 3v2l3 1-2 7-9 3h-6l-2-1-1-8 5-6z" fill="#7054DA"/>
<path transform="translate(807,1140)" d="m0 0 11 2 8 4v4l-6 2h-5v-2l-7-1-3-1v-7z" fill="#7054DA"/>
<path transform="translate(1502,178)" d="m0 0h1v7l-4 16-7 16-8 12-12 13-12 10-13 7-2-1 13-8 11-8 8-8 9-12 5-8 6-16 4-14z" fill="#8B78F0"/>
<path transform="translate(1428,70)" d="m0 0h7l16 7 12 8 12 11 7 7 3 4-1 2-12-13-7-6-5-2-5-4-3-1v-2l-6-2-14-7z" fill="#7E68E3"/>
<path transform="translate(760,1144)" d="m0 0h7l-2 3-4 2-3 5 1 8 3 3 1 4-2 2h-5l-3-5 1-16 4-5z" fill="#7054DA"/>
<path transform="translate(1305,133)" d="m0 0 2 1-2 7-2 14v21l1 3 1 14 4 10v3h-2l-5-16-2-10v-25l4-19z" fill="#8D7CED"/>
<path transform="translate(1397,65)" d="m0 0h13l14 2 4 2h-7l-4-1h-25l-20 4-10 4-8 4-4-1 14-7 17-5z" fill="#8B79EF"/>
<path transform="translate(1352,797)" d="m0 0 7 1 1 1v7l-5 4-7-3-1-4 3-5z" fill="#7B5BF2"/>
<path transform="translate(1482,861)" d="m0 0h6l2 1 1 4v7l-1 1h-8l-1-12z" fill="#7054DA"/>
<path transform="translate(1453,1093)" d="m0 0 8 1 2 6-5 5h-5l-3-4 1-6z" fill="#7B5BF2"/>
<path transform="translate(1345,82)" d="m0 0 2 1-12 11-3 3h-2l-2 4-6 7-2 1-4 7h-3l7-10 10-11 5-5z" fill="#9082EB"/>
<path transform="translate(796,278)" d="m0 0 4 1 7 5 8 4v1h-10l-4-2-4-4z" fill="#7054DA"/>
<path transform="translate(1313,1163)" d="m0 0 3 1-17 9-14 6-9 2-1-4 10-1 12-5z" fill="#8C7AEE"/>
<path transform="translate(1484,226)" d="m0 0v3l-12 13-12 10-13 7-2-1 13-8 11-8 8-8z" fill="#8E7EED"/>
<path transform="translate(138,411)" d="m0 0h38v1l-30 1-10 1-4 1v2l-4 1 5-5z" fill="#C7E8C0"/>
<path transform="translate(1283,453)" d="m0 0 2 1-5 9-3 13h-2l1-13 4-7z" fill="#8C7BEE"/>
<path transform="translate(906,652)" d="m0 0 5 2 7 7v5l-4-2-4-5v-2l-5-2z" fill="#7054DA"/>
<path transform="translate(1404,1172)" d="m0 0 5 1 11 4 6 2 15 2v1l-16-1-13-4-8-4z" fill="#8C79EF"/>
<path transform="translate(290,1160)" d="m0 0 3 1-21 11-8 3-3-1 16-8z" fill="#C9E9C3"/>
<path transform="translate(884,1168)" d="m0 0 5 1 12 6 13 3 2 2-10-1-15-6-7-4z" fill="#8B78F0"/>
<path transform="translate(1360,259)" d="m0 0 8 2 11 4 9 2v1l-11-1-15-5-2-1z" fill="#9081EC"/>
<path transform="translate(707,196)" d="m0 0 2 1-8 11-3 6-1-2 3-9 4-5z" fill="#9286E9"/>
<path transform="translate(732,915)" d="m0 0 5 3v2l10 3 1 2h-7l-6-3-3-5z" fill="#7054DA"/>
<path transform="translate(1493,125)" d="m0 0h2l5 12 1 8-2-3-4-11-2-2z" fill="#8F80EC"/>
<path transform="translate(1362,73)" d="m0 0m-3 1h3l-1 3-7 3-4-1z" fill="#9388E8"/>
<path transform="translate(1377,68)" d="m0 0m-4 1 4 1-13 5-2-1 5-3z" fill="#8B78F0"/>
<path transform="translate(1458,250)" d="m0 0v3l-11 6-2-1z" fill="#8B78F0"/>
</svg>
