<?xml version="1.0" encoding="UTF-8"?>
<svg version="1.1" viewBox="0 0 2048 423" width="1280" height="1280" xmlns="http://www.w3.org/2000/svg">
<path transform="translate(1305,153)" d="m0 0h29l18 3 16 5 12 6 10 8 3 2 1-6 5-8 5-4 10-2 15-1h86l21 2 9 3 6 7 4 13 8-14 8-7 14-4 11-1h47l25 2 10 4 8 9 6 16 6 27 3 15 1 2 5-16 6-14 8-12 11-12 10-8 12-7 14-5 10-2h27l18 4 17 7 14 10 11 11 2 4 2 1v-7l4-15 4-6 8-5 7-2 25-1 15 2 12 5 4 4 4-2 5-4 8-3 15-2 23-1 14 2 10 5 4 5 2 11 1 12v32l-3 21-5 14-7 10-10 10 4 2 6 5 7 10 5 11 3 12 1 6v33l-2 12-5 6-13 4-9 1h-29l-11-2-8-4-5-4-2 4-8 5-14 3h-26l-16-3-11-4-5-4-4-9v-2l-13 10-11 5-14 4-11 2-12 1h-18l-16-2-18-6-11-6-10-8-10-10-10-15-2-4-1 24-3 12-4 6-5 3-19 3h-35l-10-5-6-8-4-9-4 10-5 6-10 4-12 2-20 1-17-2-10-4-7-8-3-12v-43l4-42 4-29-8 2-12 1h-13l1 9 2 40 3 50v17l-2 10-4 6-4 3-8 2-9 1h-24l-30-2-7-2-5-5-4-7-3-16v-42l5-66-18-1-8-4-4-5-2-4-12 4h-16l-12-2h-10l-3 3 1 5 10 7 18 10 11 8 10 9 9 13 5 11 3 16v12l-3 14-6 12-8 10-13 10-17 8-15 4-15 2h-35l-29-4-13-4-6-4-6-5-2 4-4 4-10 3-14 2-38 2h-54l-19-2-12-4-7-8-3-8-6 11-7 5-11 3-7 1h-26l-12-3-6-4-4-5-2-8-1-16-7 7-8 4-8 2h-12l-13-4-6-4-5-7v14l-2 11-4 6-6 4-13 3h-27l-14-3-8-5-4-5v-2h-2l-1 4-5 6-7 3-16 2h-35l-8-4-5-5-4-7-2-5-2 3-4 8-7 6-12 3-7 1h-32l-13-4-6-5-4-8v-4h-2l-1 7-4 6-6 5-14 4-13 2-13 1h-46l-27-3-11-4-8-6-8-9-7-14-4-13-3-16-3-41v-19l3-35 4-20 7-20 6-10 7-8 12-6 14-2h30l26 2 27 4 15 4 10 4 8 8 4 11 1 15-2 18-4 13-4 6-6 5-11 2h-17l-28-6h-9l-3 11-2 29h2l3-9 5-7 9-6 9-3 8-1h12l18 2 12 4 5 6 2 1 1-12 6-38 6-27 5-16 5-9 6-5 11-4 16-2h46l26 2 8 3 5 4 6 10 6 18 7 34 4 22 3-51 2-16 4-11 8-7 10-4 12-2h20l15 2 10 5 7 9 8 16 12 28 2 4 4-8 11-26 9-17 6-7 9-4 15-2h19l16 3 10 5 6 7 3 9 2 13 1 2 4-16 6-10 7-7 8-4 9-2 10-1h81l18 3 10 5 5 6 3 8 2 17 6-11 11-12 10-7 13-6 15-4zm-72 66-5 10-8 4-13 2-22 2 3 2 8 3 5 5 4 8 2 10v15l-3 9-5 6-9 3-20 4v1l48 1 10 3 5 4 4 6 3-3 6-8 7-5 7-2h26l6-3v-4l-9-6-11-7-12-9-11-11-8-13-4-12-2-14zm-464 14-2 20-1 23h8l1-3-1-20-2-19zm853 0-2 26v17h7l1-1v-14l-2-21-1-7zm234 8-7 4h-45l-6 3-4 6-2 7v17l3 11 3 3 3 1h36l14 2 11 4h2l1-52-3-5z" fill="#060505"/>
<path transform="translate(339,5)" d="m0 0h21l1 1v65l-3 9-5 6-11 4h-71v37l119 1 13 2 18 5 16 7 15 10 14 12 12 13 8 11 8 14 7 18 4 17 1 10v53l-2 14-5 19-8 18-10 15-12 14-8 8-13 10-16 9-14 6-23 5-11 1h-249l-18-2-19-5-16-7-15-10-15-13-7-7-9-11-9-15-8-18-5-19-2-18v-40l2-19 5-19 9-20 9-14 11-13 10-10 13-10 15-9 17-7 17-4 9-1 118-1 1-41 3-9 4-5 8-4 13-1h62v-61z" fill="#D99A08"/>
<path transform="translate(339,5)" d="m0 0h21l1 1v65l-3 9-5 6-11 4h-71v37l119 1 13 2 18 5 16 7 15 10 14 12 12 13 8 11 8 14 7 18 4 17 1 10v53l-2 14-5 19-8 18-10 15-12 14-8 8-13 10-16 9-14 6-23 5-11 1h-249l-18-2-19-5-16-7-15-10-15-13-7-7-9-11-9-15-8-18-5-19-2-18v-40l2-19 5-19 9-20 9-14 11-13 10-10 13-10 15-9 17-7 17-4 9-1 118-1 1-41 3-9 4-5 8-4 13-1h62v-61zm-201 145-17 2-15 4-16 8-11 7-14 12-9 11-7 10-8 17-5 19-1 10v47l2 15 5 16 8 16 7 11 13 14 13 10 16 9 14 5 14 3 11 1h243l16-2 15-4 14-6 15-10 13-11 9-11 9-14 7-16 4-16 1-12v-43l-2-16-5-17-8-16-7-10-9-10-13-12-18-11-16-6-13-3-12-1z" fill="#060505"/>
<path transform="translate(896,180)" d="m0 0 19 1 5 1 8 15 13 30 9 19 6 7 4 2h9l7-6 11-21 11-26 10-20 17-2 15 1 8 2 2 9 2 21 2 48v45l-2 40-2 6-8 2h-19l-5-1v-21l1-20v-30l-3-10-5-5-2-1h-10l-6 5-6 12-13 41-4 6h-12l-3-3-6-18-7-24-7-14-6-5h-10l-6 4-3 7-1 8v24l1 21v23l-5 1h-20l-8-2-2-24v-93l2-33 2-16 1-3z" fill="#D99A08"/>
<path transform="translate(1594,179)" d="m0 0h54l17 2 6 18 6 28 6 42 3 34 1 21v22l-1 6-3 1-11 1h-22l-3-5-5-21-4-6-10-5h-10l-9 4-4 5-3 14-2 11-4 2-6 1h-23l-7-2-1-10 1-36 4-41 5-34 6-29 5-18 3-3zm28 54-2 26v17h7l1-1v-14l-2-21-1-7z" fill="#D99A08"/>
<path transform="translate(740,179)" d="m0 0h55l16 2 5 12 6 26 6 39 4 37 1 17v40l-13 2h-24l-4-10-4-17-3-5-7-4-4-1h-10l-8 4-4 5-3 10-3 16-9 2h-23l-7-2-1-3v-34l3-37 5-37 5-28 6-24 3-7 5-2zm29 54-2 20-1 23h8l1-3-1-20-2-19z" fill="#D99A08"/>
<path transform="translate(123,207)" d="m0 0h72l1 1v39h39l1 1v64l-1 8h-39v25l-1 15h-72v-40h-40l-1-1 1-72h40z" fill="#030202"/>
<path transform="translate(1910,178)" d="m0 0 13 1 6 2 3 28 3 10 3 5 6 3h10l7-4 5-10 3-13 2-20 17-2h20l2 6 1 10v22l-2 16-4 13-4 6-10 8-7 5-3 6v8l6 9 11 9 7 8 5 11 2 11v25l-1 3-8 1h-23l-6-1-5-24-5-10-5-4-6-2h-10l-6 4-3 4-2 7v27l-9 1h-12l-17-2-4-2-1-9-1-30v-51l2-49 3-30 2-4z" fill="#D99A08"/>
<path transform="translate(583,178)" d="m0 0 25 1 36 5 16 4 3 2 1 4v16l-3 13-1 1h-12l-29-6-14-1-9 3-7 6-5 10-3 13-1 11v29l3 16 7 14 5 4 5 2h13l6-4 4-5 4-11 1-22 6-4 5-1h10l14 2 1 1 1 7v16l-2 26-3 20-2 4-17 3-15 1h-25l-30-2-11-2-6-4-6-9-5-14-3-18-2-24v-39l2-19 5-24 6-15 6-7 9-2z" fill="#D99A08"/>
<path transform="translate(1134,179)" d="m0 0h54l20 2 5 2v20l-2 8-1 1-20 2-30 2-8 4-4 9v17l4 10 6 4 25 2 1 2 1 10-3 2-20 4-8 4-5 5-2 4v14l3 12 6 5 8 2h50l2 6v19l-1 1-29 3-22 1h-44l-20-2-2-2-2-13-1-12v-58l2-53 2-22 4-9 6-4 5-1z" fill="#D99A08"/>
<path transform="translate(1303,177)" d="m0 0h33l18 4 12 5 8 7 1 2v7l-2 4-12-1-7-1h-18l-12 5-6 7-4 10v13l4 8 6 7 14 9 16 9 13 10 7 9 4 8 2 8v16l-5 12-6 7-11 7-13 5-13 3-10 1h-18l-22-2-18-3-5-3-1-4v-15l3-8 3-2h24l9-2 10-6 6-7 2-6v-12l-5-10-1-3-4-2-18-11-13-10-9-9-5-11-2-8v-15l4-9 6-8 9-7 12-5z" fill="#D99A08"/>
<path transform="translate(1785,177)" d="m0 0h14l20 4 14 7 10 9 4 6 1 3v7l-5 8-2 2h-42l-11 4-9 8-5 8-4 13-1 7v9l2 15 4 12 6 8 8 6 6 2 18 1h29l7 3 3 4 1 3v7l-4 8-8 7-12 5-13 3-18 1-19-2-16-5-12-7-11-11-8-14-6-17-3-17-1-10v-21l3-19 5-15 8-15 11-12 14-9 11-4z" fill="#D99A08"/>
<path transform="translate(1417,180)" d="m0 0h104l9 1 1 1v34l-1 1-31 1-6 4-3 5-1 5v31l4 71v20l-1 1h-35l-15-1-1-5v-50l4-52v-19l-3-6-6-4-14-2-9-1v-17l3-17z" fill="#D99A08"/>
<path transform="translate(145,230)" d="m0 0h28l1 39h38l1 1v27l-2 1-38-1v40h-28v-40l-39 1-1-1v-27h40z" fill="#A8ACAD"/>
<path transform="translate(299,252)" d="m0 0 12 2 10 5 8 7 6 12 1 6v9l-2 9-6 10-8 7-10 5-11 1-13-2-11-7-7-9-4-9-1-5v-8l3-12 6-9 9-7 10-4z" fill="#040302"/>
<path transform="translate(357,302)" d="m0 0 12 1 10 4 10 9 6 12 1 4v13l-4 11-7 9-9 6-9 3h-15l-11-4-10-9-6-10-2-9 1-13 6-12 6-7 8-5 6-2z" fill="#040303"/>
<path transform="translate(352,193)" d="m0 0h15l11 4 9 7 6 9 3 9v13l-4 11-7 9-8 6-7 3-12 1-12-2-11-7-8-11-3-7-1-13 3-11 6-10 11-8z" fill="#040302"/>
<path transform="translate(412,253)" d="m0 0h16l12 5 9 8 6 12 1 4v13l-4 11-7 9-8 6-7 3-12 1-11-2-9-5-5-4-6-9-3-8v-17l5-12 9-9 10-5z" fill="#040302"/>
<path transform="translate(768,209)" d="m0 0 10 1 10 5 6 9 3 22 1 12v22l-3 9-7 6-11 4-10 1-13-3-6-4-4-5-1-3v-24l3-33 3-9 8-7 5-2zm1 24-2 20-1 23h8l1-3-1-20-2-19z" fill="#050403"/>
<path transform="translate(1622,209)" d="m0 0 10 1 8 4 6 7 2 5 3 26v31l-4 8-7 5-9 3-11 1-12-3-6-4-5-6-1-3v-15l3-38 2-9 4-6 8-5zm0 24-2 26v17h7l1-1v-14l-2-21-1-7z" fill="#040303"/>
<path transform="translate(220,168)" d="m0 0h78v22l-1 1h-76l-1-1z" fill="#050404"/>
<path transform="translate(356,317)" d="m0 0 10 1 6 3 7 8 2 6v8l-5 10-9 6-2 1h-10l-10-6-6-9v-13l4-8 9-6z" fill="#040202"/>
<path transform="translate(297,267)" d="m0 0 9 1 6 3 7 8 2 7-1 10-6 8-5 4-7 2-9-1-7-4-6-7-2-5v-8l4-9 5-5 6-3z" fill="#030202"/>
<path transform="translate(414,268)" d="m0 0h12l7 4 6 7 2 5v11l-6 9-8 5-3 1h-7l-10-4-7-9-1-3v-11l4-8 8-6z" fill="#030202"/>
<path transform="translate(354,208)" d="m0 0h12l8 5 5 6 2 5v9l-5 10-7 5-6 2h-7l-9-4-7-8-1-2v-14l5-8 5-4z" fill="#030202"/>
<path transform="translate(417,260)" d="m0 0 13 1 8 5 7 8 3 7 1 11-3 10-7 9-6 4-7 2h-14l-10-5-8-9-3-8v-14l5-10 8-7 7-3zm-3 8-8 4-5 6-2 5v11l5 9 5 4 8 3h7l10-5 6-8 1-2v-11l-4-8-8-7-3-1z" fill="#1E1B19"/>
<path transform="translate(352,201)" d="m0 0h16l10 5 7 8 3 6 1 11-3 10-4 6-5 5-6 4-7 2h-7l-11-3-10-9-4-8-1-4v-12l4-9 7-8zm2 7-8 4-5 6-2 4v14l4 6 7 6 6 2h7l9-4 5-5 4-8v-9l-4-8-7-6-4-2z" fill="#1E1B19"/>
<path transform="translate(300,260)" d="m0 0 12 2 6 4 7 8 3 6 1 10-2 9-6 9-8 7-6 2h-15l-10-5-8-9-3-7v-15l6-12 6-5 7-3zm-3 7-8 3-6 4-4 8-1 3v8l4 8 8 7 6 2 11-1 6-4 6-7 2-6-1-10-4-7-7-6-8-2z" fill="#1E1B19"/>
<path transform="translate(353,310)" d="m0 0h14l9 4 7 7 5 10 1 10-3 10-4 6-8 7-8 3h-13l-12-6-6-7-4-9v-14l5-10 9-8zm3 7-8 3-5 4-4 8v13l6 9 10 6h10l10-6 5-8 1-3v-8l-4-9-8-7-7-2z" fill="#1E1B19"/>
<path transform="translate(39,313)" d="m0 0 2 3 5 15 7 12 2 5 2 1 3 5 1 3 4 2 2 4 4 2 9 7 10 6 14 8 14 5 9 2h116l83 1h53l21-3 18-5 2 1-8 4-15 4-16 2h-243l-16-2-16-4-16-8-11-7-13-11-9-10-9-14-7-15-2-6z" fill="#E5A712"/>
<path transform="translate(240,198)" d="m0 0h38v22l-1 1h-36l-1-1z" fill="#060504"/>
<path transform="translate(138,150)" d="m0 0h243l17 2 14 4 14 6 15 10 15 14 3 3-1 2-9-7-11-9-6-5-7-5-13-6-13-4-14-2h-248l-18 2 2-3z" fill="#E1A20E"/>
<path transform="translate(354,325)" d="m0 0h11l7 6 1 2v11l-6 7-3 1h-9l-6-4-3-5v-9l5-7z" fill="#E7A913"/>
<path transform="translate(357,215)" d="m0 0 9 1 5 4 2 4v10l-2 4-7 4h-9l-6-4-3-4v-9l4-7z" fill="#A8ACAD"/>
<path transform="translate(296,275)" d="m0 0h7l6 3 3 4 1 3v8l-4 6-6 3h-7l-6-3-3-4-1-3v-7l4-7z" fill="#A8ACAD"/>
<path transform="translate(416,275)" d="m0 0h7l6 3 4 6v10l-5 6-4 2h-9l-6-4-3-6 1-9 5-6z" fill="#D99A08"/>
<path transform="translate(227,176)" d="m0 0h64v7h-64z" fill="#1E1B19"/>
<path transform="translate(1214,347)" d="m0 0h1v5l-29 3-22 1h-44l-5-1v-1l7-1h33l43-3 16-1z" fill="#E5A611"/>
<path transform="translate(196,321)" d="m0 0h39v1l-36 1v31l-3 7-1 1h-63l-6-1v-1h69v-15z" fill="#E8AA14"/>
<path transform="translate(1417,180)" d="m0 0h104l9 1-1 3-2 1-6-2h-104z" fill="#E4A611"/>
<path transform="translate(113,154)" d="m0 0h5v2l-17 5-15 9h-3v2l-4 2-1 2h-2v2l-8 7-10 10-10 16-4 9-1-4 9-17 9-11 7-8 11-9 14-9 16-7z" fill="#E4A611"/>
<path transform="translate(81,247)" d="m0 0h1v74l-2-3-1-6v-61z" fill="#E9AB15"/>
<path transform="translate(385,151)" d="m0 0h8l17 4 16 7 15 10 15 14 3 3-1 2-9-7-11-9-6-5-7-5-13-6-13-4-14-2z" fill="#E6A712"/>
<path transform="translate(656,351)" d="m0 0h2v3l-17 3-15 1h-25l-11-2v-1h23l29-2z" fill="#E5A712"/>
<path transform="translate(167,203)" d="m0 0 24 1 4 3h-73v-1l7-1h13l3-1z" fill="#E9AB15"/>
<path transform="translate(268,205)" d="m0 0 3 1v7h-24l1-7z" fill="#1E1B19"/>
<path transform="translate(196,209)" d="m0 0 2 3 1 6v23l2 3 5 1 22-1 4 1v2h-36z" fill="#E9AB15"/>
<path transform="translate(1866,227)" d="m0 0 1 3-2 71-2-2 1-52-2-4-6-2 6-8z" fill="#A8ACAD"/>
<path transform="translate(1148,318)" d="m0 0 8 6 8 2h50v3h-50l-10-3-5-4z" fill="#E2A30F"/>
<path transform="translate(87,321)" d="m0 0h35v37l-2-1-1-11v-21l-5-2-27-1z" fill="#E9AB15"/>
<path transform="translate(1802,179)" d="m0 0h9l13 4 13 8 7 7 2 3-1 4v-2l-3-1-7-8-10-7-10-4-13-3z" fill="#E4A611"/>
<path transform="translate(1845,340)" d="m0 0h3l-2 4-9 6-16 5h-12l2-2 17-4 16-8z" fill="#E6A812"/>
<path transform="translate(1323,255)" d="m0 0 4 1 16 10 11 6 13 10 2 4-5-2-7-6-2-1v-2l-5-2-10-6-11-6-6-5z" fill="#E2A30F"/>
<path transform="translate(618,182)" d="m0 0h13l22 4 9 3 1 7-4-2-4-4-12-3-20-3-5-1z" fill="#E2A30F"/>
<path transform="translate(1235,178)" d="m0 0h1l2 17v3l-1 8v28h-1l-2-14-1-5 1-10z" fill="#5A554B"/>
<path transform="translate(121,208)" d="m0 0h1v39l-10-1v-2l6-1 1-10 1-23z" fill="#E9AB15"/>
<path transform="translate(39,313)" d="m0 0 2 3 5 15 7 12 2 5 2 1 3 5 1 4-5-5-7-10-8-17-2-6z" fill="#E5A711"/>
<path transform="translate(1163,180)" d="m0 0h39l10 2v9l-2-2-1-3-9-3-11-1-26-1z" fill="#E5A712"/>
<path transform="translate(625,312)" d="m0 0h2l-2 6-3 5-9 5h-14l-8-4v-2l9 3h13l6-4 4-5z" fill="#E3A410"/>
<path transform="translate(418,386)" d="m0 0 2 1-8 4-15 4-5 1h-7v-2l9-2 21-5z" fill="#E4A511"/>
<path transform="translate(1164,276)" d="m0 0h9l-2 2-12 3-9 6-4 7-1 8h-1v-9l3-7 7-6z" fill="#E5A712"/>
<path transform="translate(1617,208)" d="m0 0h12v1l-16 3-9 6-4 8h-2l1-6 4-6 6-4z" fill="#E5A611"/>
<path transform="translate(126,151)" d="m0 0h50l-2 2h-37l-18 2 2-3z" fill="#E9AB15"/>
<path transform="translate(1370,336)" d="m0 0h2l-1 4-11 8-12 5-8 1 1-2 12-4 11-6z" fill="#E5A611"/>
<path transform="translate(1612,315)" d="m0 0h7l-1 2-9 4-4 5-3 8-2 2v-7l4-9z" fill="#E5A712"/>
<path transform="translate(454,360)" d="m0 0 1 2-5 5-10 9-13 8-3-1 9-6 16-12z" fill="#E4A611"/>
<path transform="translate(385,151)" d="m0 0h8l17 4 12 5-1 2-4-1-18-6-14-2z" fill="#E3A510"/>
<path transform="translate(1988,178)" d="m0 0h20l1 2-2 4-6-3h-24l1-2z" fill="#E3A510"/>
<path transform="translate(853,211)" d="m0 0h1v25l-1 21-2 1-1-2v-8h1z" fill="#565249"/>
<path transform="translate(760,315)" d="m0 0h5l-1 2-8 4-4 5-3 10h-2l1-11 6-7z" fill="#E4A611"/>
<path transform="translate(1758,186)" d="m0 0 3 1-11 7-9 10-8 14-1-3 6-11 11-12z" fill="#E3A410"/>
<path transform="translate(1739,170)" d="m0 0 2 1-19 19-5 8-2-1 7-10 9-10z" fill="#4C4C4C"/>
<path transform="translate(598,216)" d="m0 0v3l-8 6-5 8-3 7-2-3h2v-5l6-10h2v-2z" fill="#E5A711"/>
<path transform="translate(783,180)" d="m0 0h23l6 2v4l-9-3-20-2z" fill="#E5A712"/>
<path transform="translate(1863,232)" d="m0 0h2v15l-5-5-4-2z" fill="#F2F3F3"/>
<path transform="translate(764,208)" d="m0 0h6l-2 2-9 2-8 6-4 4-1-2 4-6 4-3z" fill="#E4A611"/>
<path transform="translate(1349,271)" d="m0 0 5 1 13 10 2 4-5-2-7-6-2-1v-2l-5-2z" fill="#E4A611"/>
<path transform="translate(1073,194)" d="m0 0 3 2v20l-2 1-1-9z" fill="#4D4D4C"/>
<path transform="translate(1636,180)" d="m0 0h24l5 1-1 3-8-1-20-2z" fill="#E5A712"/>
<path transform="translate(1682,349)" d="m0 0 3 1v2l-2 1h-23v-1l11-1z" fill="#E7A913"/>
<path transform="translate(606,274)" d="m0 0 1 4-1 4-1 15-2-2-1-6v-8h2z" fill="#C6A654"/>
<path transform="translate(1987,289)" d="m0 0 4 1 12 11 2 3-1 3-5-5-6-7-2-1v-2l-4-2z" fill="#E3A510"/>
<path transform="translate(648,186)" d="m0 0 9 1 5 2 1 7-4-2-4-4-7-2z" fill="#E6A812"/>
<path transform="translate(1846,211)" d="m0 0 1 4-4 6-1 1h-14v-1l13-3 2-3h2z" fill="#E6A813"/>
<path transform="translate(904,351)" d="m0 0 3 2-2 1h-20l-2-2z" fill="#E1A30F"/>
<path transform="translate(395,348)" d="m0 0 1 3-5 10-7 7-3 1 2-4 5-5 5-8z" fill="#E4A611"/>
<path transform="translate(270,263)" d="m0 0h2l-2 5-4 8-2 5-2-1 3-10z" fill="#E6A712"/>
<path transform="translate(551,343)" d="m0 0 5 3 4 5 7 2v1h-7l-6-4-3-4z" fill="#E5A611"/>
<path transform="translate(1709,322)" d="m0 0 2 1 2 5-1 3-1-2-1 24h-1z" fill="#4C4B4A"/>
<path transform="translate(334,200)" d="m0 0h2v2l-5 5-5 9-2 5-1-3 4-10z" fill="#E5A611"/>
<path transform="translate(820,350)" d="m0 0h8l3 2-2 1h-23v-1h14z" fill="#E7A813"/>
<path transform="translate(1498,216)" d="m0 0 3 1-8 5-3 5h-2l-1 3 1-7 5-5z" fill="#E4A611"/>
<path transform="translate(388,204)" d="m0 0 5 5 4 8v7l-2-2-4-11-3-5z" fill="#E4A611"/>
<path transform="translate(1148,318)" d="m0 0 8 6 8 2v2l-8-1-6-4z" fill="#E3A510"/>
<path transform="translate(1331,203)" d="m0 0 3 1-11 6-6 5 2-5 3-3z" fill="#E3A510"/>
<path transform="translate(780,210)" d="m0 0 6 1 5 5 3 4v2h-2l-4-6-8-5z" fill="#E2A410"/>
<path transform="translate(39,313)" d="m0 0 2 3 3 10v5l-2-3-3-8z" fill="#E4A511"/>
<path transform="translate(1074,345)" d="m0 0 2 2 1 13-2-3-2 1z" fill="#504B41"/>
<path transform="translate(1259,343)" d="m0 0 2 3v2l6 3 5 1v1h-8l-5-3z" fill="#E4A611"/>
<path transform="translate(994,335)" d="m0 0h1v22h-1l-1-16-2 1 2-6z" fill="#ADAB9D"/>
<path transform="translate(1164,276)" d="m0 0h9l-2 2-13 3 2-4z" fill="#E4A511"/>
<path transform="translate(1284,258)" d="m0 0 5 2 11 7-3 1-13-8z" fill="#E4A511"/>
<path transform="translate(618,182)" d="m0 0h13l5 2-2 2-16-3z" fill="#E5A712"/>
<path transform="translate(126,151)" d="m0 0h6l-1 3-12 1 2-3z" fill="#E4A611"/>
<path transform="translate(1594,350)" d="m0 0h5v2l-3 1h-15v-1z" fill="#E6A812"/>
<path transform="translate(1314,303)" d="m0 0h2l-2 6-4 5-4 2 2-4 5-6z" fill="#E3A510"/>
<path transform="translate(1636,211)" d="m0 0 5 1 2 1v2h2l2 5-4-2-7-6z" fill="#E5A611"/>
<path transform="translate(1048,349)" d="m0 0h2v3l-2 1h-13v-1z" fill="#E6A813"/>
<path transform="translate(1179,236)" d="m0 0h16v1l-7 1v1l-10-1z" fill="#7B7666"/>
<path transform="translate(544,161)" d="m0 0 2 1-10 10-2-1 7-8z" fill="#525252"/>
<path transform="translate(1919,180)" d="m0 0h9v7l-5-4z" fill="#E6A813"/>
<path transform="translate(1630,316)" d="m0 0 6 1 7 8-2 1-4-5-7-4z" fill="#E3A510"/>
<path transform="translate(449,265)" d="m0 0 4 4 3 7-1 3-6-11z" fill="#E4A611"/>
<path transform="translate(1037,182)" d="m0 0h8l3 1-1 4-10-4z" fill="#E4A611"/>
</svg>
