<?xml version="1.0" encoding="UTF-8"?>
<svg version="1.1" viewBox="0 0 1020 924" width="1280" height="1280" xmlns="http://www.w3.org/2000/svg">
<path transform="translate(815,280)" d="m0 0h135l11 2 9 7 5 9 1 5v7l-3 8-8 9-4 3-1 26v445l-2 13-5 13-9 14-6 7-12 9-15 7-11 3-17 1-17-2-15-6-11-7-12-12-9-14-5-14-2-14-1-469-10-9-4-7-1-2v-11l4-9 6-7z" fill="#C7C9D7"/>
<path transform="translate(615,280)" d="m0 0h129l15 1 9 6 6 8 2 7v9l-5 10-7 7-3 2-1 389-1 89-4 14-7 13-8 10-10 9-12 7-18 6-18 1-15-2-16-6-13-9-9-9-9-14-5-11-3-14-1-473-9-7-4-6-2-6v-11l5-10 8-7z" fill="#C9CBDA"/>
<path transform="translate(567,13)" d="m0 0 9 1 8 4 8 9 8 20 11 31 18 49 8 22 2 8-1 10-5 9-7 6-8 3h-11l-9-4-4-3-7 1-20 7-29 11-25 9-27 10-29 10-33 12-24 9-29 10-15 6-29 10-30 11-88 32-27 10-28 10-10 3h-30l-13-5-12-8-10-9-7-8-5-9-5-12-3-11-1-16 3-16 5-13 7-11 12-12 9-6 20-8 76-28 50-18 53-19 52-19 44-16 47-17 57-21 23-8 19-7 8-4 2-9 6-9 8-5z" fill="#C6C9D8"/>
<path transform="translate(567,13)" d="m0 0 9 1 8 4 8 9 8 20 11 31 18 49 8 22 2 8-1 10-5 9-7 6-8 3h-11l-9-4-4-3-7 1-20 7-29 11-25 9-27 10-29 10-33 12-24 9-29 10-15 6-29 10-30 11-88 32-27 10-28 10-10 3h-30l-13-5-12-8-10-9-7-8-5-9-5-12-3-11-1-16 3-16 5-13 7-11 12-12 9-6 20-8 76-28 50-18 53-19 52-19 44-16 47-17 57-21 23-8 19-7 8-4 2-9 6-9 8-5zm-24 42-56 20-142 52-94 34-57 21-20 7-30 11-28 10-16 8-9 7-9 12-5 10-2 7-1 14 2 13 5 13 8 11 8 8 12 7 13 4h20l20-6 30-11 63-23 58-21 35-13 44-16 119-43 57-21 16-6 2-3-4-9-13 4-9 4-9 3-10 4-6 2-22 8-10 4-12 4-1 2-3-1v2l-11 2-9 4h-2v2l-8 1-10 4-11 4-4 1v2h-6l-7 3-16 4v-7l-9-27-9-24-6-17-4-10 12-5 9-4 10-3 14-5 30-11 8-3 14-5 5-2 1 2 5 3 26 13 24 11 20 9 15 7 8 4h2l-3-11-11-30-16-44z" fill="#042C44"/>
<path transform="translate(815,280)" d="m0 0h135l11 2 9 7 5 9 1 5v7l-3 8-8 9-4 3-1 26v445l-2 13-5 13-9 14-6 7-12 9-15 7-11 3-17 1-17-2-15-6-11-7-12-12-9-14-5-14-2-14-1-469-10-9-4-7-1-2v-11l4-9 6-7zm13 52v463l2 16 5 12 9 12 10 8 12 6 13 3h14l12-3 10-4 9-7 8-8 7-11 3-9 1-5 1-16v-457z" fill="#012D44"/>
<path transform="translate(615,280)" d="m0 0h129l15 1 9 6 6 8 2 7v9l-5 10-7 7-3 2-1 389-1 89-4 14-7 13-8 10-10 9-12 7-18 6-18 1-15-2-16-6-13-9-9-9-9-14-5-11-3-14-1-473-9-7-4-6-2-6v-11l5-10 8-7zm13 52v466l3 16 6 12 8 10 9 7 12 6 14 3h11l12-2 12-5 9-7 8-8 8-13 3-12 1-21v-452z" fill="#032D43"/>
<path transform="translate(840,411)" d="m0 0h91l1 1v216l-92 1-1-4v-190z" fill="#750076"/>
<path transform="translate(696,627)" d="m0 0h36v154l-1 25-4 11-11 12-9 6-9 4-5 1h-14l-13-4-11-7-8-9-5-10-2-7-1-62v-107l1-6z" fill="#D70030"/>
<path transform="translate(473,92)" d="m0 0 6 1 1 2 46 22 9 3v2l9 3 9 4 1 2 5 1 12 5 1 2 6 2 1-2 3 7 2 8-3-1-14 5h-3l-1 2-7 2h-3l-1 2-9 3-6 3-15 5-10 3-7 3-13 5-15 5-18 7-9 3-7 1-1 2-7 2h-3v2l-11 3-2 1-2-1-1 2-8 2h-5l-3-14-16-44-6-17-4-10 5-3 14-5h2l1-2 10-3 6-1 1-2 21-7 14-5h2l1-2 10-3z" fill="#017EC5"/>
<path transform="translate(641,519)" d="m0 0 91 1 1 77v29l-3 1-79 2h-9l-2-1v-108z" fill="#017DC4"/>
<path transform="translate(373,129)" d="m0 0 2 1 4 10 10 28 12 33 2 7v7l2 1-21 7-41 15-28 10-10 4-4-9-15-41-6-15-5-14-1-6 8-4 20-8 30-11 25-9z" fill="#D60031"/>
<path transform="translate(843,519)" d="m0 0 7 1h80l2 9v99h-84l-7-2v-106z" fill="#D70030"/>
<path transform="translate(270,167)" d="m0 0 5 4 5 12 6 17 9 24 8 22 1 7-42 16-35 13-17 6-3-1-3-7-4-10v-2h-2l-18-48-2-10-1-7 3-4 4-1 2 1 1-2 10-4 7-2 2 1 1-2 12-5 9-3 5-1 3-2 7-2 9-4 13-5z" fill="#2CE4D5"/>
<path transform="translate(841,628)" d="m0 0h91l1 1v101l-1 1h-92l-1-71v-27z" fill="#2CE4D5"/>
<path transform="translate(892,731)" d="m0 0h22l17 1 1 8v45l-1 16-3 12-4 8-9 10-10 6-10 3h-17l-13-4-8-5-8-8-6-10-3-10v-71z" fill="#EE37D6"/>
<path transform="translate(641,732)" d="m0 0h91v49l-1 25-4 11-11 12-9 6-9 4-5 1h-14l-13-4-11-7-8-9-5-10-2-7-1-63 1-7z" fill="#0B9A08"/>
<path transform="translate(169,204)" d="m0 0h6l21 56 7 19 2 8-6 4-38 14-21 7h-17l-13-5-9-6-9-12-4-11-1-5v-16l3-10 4-8 8-9 14-7 26-9 18-7z" fill="#EE37D6"/>
<path transform="translate(639,332)" d="m0 0h33v188h-21l-11-2-1-2z" fill="#A8AABB"/>
<path transform="translate(581,152)" d="m0 0 3 3 2 7-5 3-29 11-138 50-69 25-49 18-58 21-49 18-39 14-8 2h-20l-13-4-12-7-10-10-2-5h2l1-2 7 4 5 3v2l8 2 4 4v3l11 3 11-2 8-1 1-2 13-3 3-1v-2l8-1 4-3 9-1 1-2 5-2 2 1 1-4 14-6 1-2-3-9-2-9 2 2 5 12 2 5 10-3 36-13 37-14 12-5 1-3 2 2 12-5 28-10 44-16 24-8 9-2 4-2h5v-2l10-3 8-3 11-4h4l1-2 18-6h3l1-2 2 1 1-2 12-4 10-4 9-3 10-4 7-2 7-3 11-4 10-4z" fill="#C6C7D7"/>
<path transform="translate(628,332)" d="m0 0h11l1 1v185l3 1-2 1-2 216-2-4-2 3-2 9-3 1v47l-2 2z" fill="#BFDBE7"/>
<path transform="translate(743,334)" d="m0 0h1v450l-1 21-3 12-9 14-10 10-10 6-12 4-8 1h-11l-14-3-14-7-10-9-8-12-4-10-2-17 1-6v-40l1-3 3-3 2-9 3-2 2 10 1 62 4 12 8 11 8 6 10 5 8 2h14l10-3 11-6 9-9 4-6 3-9 1-25 1-146h1l1-8 5 1v20l2 20 1 1z" fill="#C3C6D5"/>
<path transform="translate(473,92)" d="m0 0 6 1 1 2 23 11 9 4-1 3-6 2-32 13-29 10-43 16-6 4-3 4v2h2v10l4 2 2 7 2 3 1 7v6l3 2v2l8 2 7 2-1 5-3-1-1 2-8 2h-5l-3-14-16-44-6-17-4-10 5-3 14-5h2l1-2 10-3 6-1 1-2 21-7 14-5h2l1-2 10-3z" fill="#0169A6"/>
<path transform="translate(641,732)" d="m0 0h91v49l-1 25-4 11-11 12-9 6-9 4-5 1h-14l-13-4-11-7-8-9-5-10-2-7-1-63 1-7zm65 5-23 2-9 2v2l-3 1-1 2v9l4 28 3 13 2 8v9l-9-1-3-1-2 1-2-4-6-5-4-2h-4l-1 4 3 13 5 9 5 1 1 3 9 5 10 2h12l8-2 8-5 5-5 10-13 3-3 1-4 2-39v-19l-4-4-3-6-2-1z" fill="#078D0B"/>
<path transform="translate(828,332)" d="m0 0h12v301l-1 13-3-3-1-8h-2v9l-2 3h-3z" fill="#BEDDE8"/>
<path transform="translate(641,519)" d="m0 0 31 1v104l1 2 23 1v1l-54 1-2-1v-108z" fill="#0168A5"/>
<path transform="translate(270,167)" d="m0 0 5 4 5 12 4 11v5h-7l-35 12-12 5-24 9-17 7h-2l12 32-1 4-18-48-2-10-1-7 3-4 4-1 2 1 1-2 10-4 7-2 2 1 1-2 12-5 9-3 5-1 3-2 7-2 9-4 13-5z" fill="#26C1B4"/>
<path transform="translate(550,64)" d="m0 0 2 3 18 50 8 22v2l-6-2-15-7-22-10-15-7-23-11-17-8-3-2v-2l17-6 40-15 12-4h3z" fill="#A8AABB"/>
<path transform="translate(841,628)" d="m0 0h54v1l-41 1 6 1v2h6v-2l4-1 1 5v96h-31l-1-71v-27z" fill="#24C1B3"/>
<path transform="translate(543,55)" d="m0 0 5 1 2 5v7l-8 1-40 15-21 8-8 1-12 5-10 3-9 4-28 10-16 6-5 2-64 23-16 6-8 1-1 1h-9l1-4 5-3 13-4 10-4 11-4h3v-2l11-3 9-4h3v-2l-2-2 46-17 74-27z" fill="#C5C9D8"/>
<path transform="translate(618,296)" d="m0 0h135l5 3 2 7-3 8-4 2h-134l-5-3-2-3v-7l4-6z" fill="#C5C8D7"/>
<path transform="translate(818,296)" d="m0 0h135l5 3 2 5-1 7-6 5h-134l-7-6v-7l4-6z" fill="#C7C9D8"/>
<path transform="translate(567,29)" d="m0 0 7 1 5 7 16 43 17 47 10 28v9l-6 5h-7l-5-4-5-13-14-38-21-58-4-12-1-8 1-2h2v-2z" fill="#C6C8D7"/>
<path transform="translate(840,332)" d="m0 0h31l1 1v77l-1 1h-31l-1-3v-72z" fill="#A8AABB"/>
<path transform="translate(169,204)" d="m0 0h6l6 16 4 11-1 2-2-1v2l-4 1-11 6-18 6h-2v2l-11 6-8 4h-2l-2 4-4-1v2l2 1h-3v2h-2l-2 3h-4l-1-7-1-1v-10h2l1-7h2l2-5 2-6v-5h-7l-5 1-2 4-5 4h-2v2h-2l2-5 7-6 12-6 26-9 18-7z" fill="#D835C6"/>
<path transform="translate(840,732)" d="m0 0h34l3 2-5 4v15l3 31 2 13 3 8v3h2l3 6-1 2-6 1-5-2-1-2-4-2v-2l-7-2-5-4-7-11-5-5-4-1z" fill="#D835C6"/>
<path transform="translate(833,635)" d="m0 0h2l2 9 2 2 1 14v71h52v1h-52l1 71 4 12 7 10 7 7 11 5 8 2h17l12-4 10-7 6-5-2 4 1 2-10 10h-5l-7 3-7 1h-1l-18 3-12-5-6-4-10-6-7-9-1-6-1-32-3-8-1 5-2-2-1 20-2-4v-148h2l1-2 1-3z" fill="#C5C8D7"/>
<path transform="translate(628,332)" d="m0 0h11l1 1v185l3 1-4 1v10h-8l-1 3-1 26h-1z" fill="#C7C9D8"/>
<path transform="translate(942,456)" d="m0 0h1v185l-1 41-5-2-2 24-1 25h-1l-1-122 1-37h1l1 21 1 8 1-5v-15l1-27v-38l1-23 1-7 1-1z" fill="#DBDFE7"/>
<path transform="translate(833,773)" d="m0 0 2 2 3 9 1 35 3 5 4 5v2l10 5 8 5 10 4 6-1 12-1v-2h3 9l1-2 5-1 2 1 2-4 6-4v-3l2-5 5-10 1-3h4v-2l4-4h2v-7l2 3 3-1-1 11-4 10-7 11-10 10-10 6-12 4-6 1h-14l-16-4-12-7-9-8-8-12-4-10-1-5 1-28h3z" fill="#C6C8D7"/>
<path transform="translate(742,514)" d="m0 0h1v159l-2-4-1-1-2-22v-16l1-2-3 1-1-1-1 14h-1l-1-7v-8l-2-1h3l-1-29v-76h1l1 9 6-5z" fill="#DCDFE7"/>
<path transform="translate(557,96)" d="m0 0h4l2 7h2l13 36v2l-6-2-15-7-22-10-15-7-4-2 3-3 26-9z" fill="#C7CAD9"/>
<path transform="translate(828,332)" d="m0 0h12v103h-1l-1-7-4-1-2 5-2-1-1-6-1-20z" fill="#C6C7D7"/>
<path transform="translate(631,528)" d="m0 0 1 2 6-1 1 1v85l-7-2-3-2v-46l2-5-1-7 2-1h-3v-19z" fill="#DEE0E7"/>
<path transform="translate(120,220)" d="m0 0 1 2-14 6-8 6-6 8-4 10-1 5v16l4 13 5 9 4 4v2l16 8 6 2h17l27-9 19-7 3 1-1 2-4 1-4 2-9 2-4 3-6 1-2-1v2l-7 3-9 2-9 3-11 2-11-3-2-3 1-2-5-3-6-2-3-3-6-3-3-2-2 1-4-10 1-2 4 4 2-3-2-4-2-7-2-5v-20l3-3 1-4 4-3 4-10 5-5 4-2v-2l7-1z" fill="#D9CCE0"/>
<path transform="translate(941,733)" d="m0 0h1l1 24v42h-2l-1 2-1-1-1 4h-2l-2 4h-2v2h-3l2-25 1-47h1l1 5 3 1 1-5h2v-5z" fill="#D9CCE0"/>
<path transform="translate(367,123)" d="m0 0 7 1v2l2 1v2l-38 14-17 6-8 3-8 1-1 1h-9l1-4 5-3 13-4 10-4 11-4h3v-2l11-3 12-5z" fill="#C0D5E2"/>
<path transform="translate(942,641)" d="m0 0h1v116h-1l-1-23-1 5h-2l1 3h-2v2l-4-1-2-3v-8h-17v-1l18-1 1-1 2-40 1-10 4 1v2h2z" fill="#C9CBDA"/>
<path transform="translate(838,762)" d="m0 0h1l2 41 4 12 7 10 7 7 11 5 8 2h17l12-4 10-7 6-5-2 4 1 2-10 10h-5l-7 3-7 1h-1l-18 3-12-5-6-4-10-6-7-9-1-6z" fill="#D9CCE0"/>
<path transform="translate(828,728)" d="m0 0h2l1 14 2 1v2h4 1v39l-3-4-1-4-1 5-2-2-1 20-2-4z" fill="#B9DCE7"/>
<path transform="translate(640,628)" d="m0 0h48v1l-31 1-15 1-1 100 2 1-2 1-1 7h-1v-106z" fill="#760077"/>
<path transform="translate(935,713)" d="m0 0h1l2 15 5 1v28h-1l-1-23-1 5h-2l1 3h-2v2l-4-1-2-3v-8h-17v-1l18-1 1-1 1-15z" fill="#C5C6D6"/>
<path transform="translate(373,129)" d="m0 0 2 1 4 10 10 28-1 3-7-18-5-12-4-7-7 1-23 8-4-1 30-11z" fill="#760077"/>
<path transform="translate(838,627)" d="m0 0 2 1-1 18-3-3-1-8h-2v9l-2 3h-2v-14l6-5v2h2z" fill="#DCDFE6"/>
<path transform="translate(941,705)" d="m0 0h1v25l-4-2-2-7v-10l1-4z" fill="#DACDE1"/>
<path transform="translate(186,295)" d="m0 0 3 1-1 2-4 1-4 2-9 2-4 3-6 1-2-1v2l-7 3-9 2-1-2z" fill="#DACDE1"/>
<path transform="translate(476,190)" d="m0 0h3v3l-19 7-6 2-13 5-3-1h2l1-3 12-4 8-3h4l1-2 9-3z" fill="#C5D9E5"/>
<path transform="translate(243,275)" d="m0 0 3 1-10 5-10 3-5 3-12 3-1-2 15-6z" fill="#C3DDE9"/>
<path transform="translate(507,179)" d="m0 0 5 1-3 2-24 9-4-1 3-2h3l1-2 2 1 1-2 12-4z" fill="#C8DCE7"/>
<path transform="translate(578,139)" d="m0 0 2 2 3 10v3l-2-1-6 1-1-3 2-6 2-3z" fill="#026CA4"/>
<path transform="translate(341,238)" d="m0 0 2 1-6 5h-6l-3 3-7 1v-3z" fill="#D2A3D5"/>
<path transform="translate(111,225)" d="m0 0 2 1-4 4h-3l-2 4-5 4h-2v2h-2l2-5 7-6z" fill="#DE36CB"/>
<path transform="translate(640,628)" d="m0 0h48v1l-31 1-17 1z" fill="#730076"/>
<path transform="translate(729,520)" d="m0 0h3l-1 39h-1l-1-33-2-5z" fill="#0166A1"/>
<path transform="translate(629,552)" d="m0 0h3l-1 3 1 6-2 4-1 17h-1v-23z" fill="#C4D9E5"/>
<path transform="translate(186,295)" d="m0 0 3 1-1 2-4 1-4 2-9 2-1-2z" fill="#D9D0E1"/>
<path transform="translate(907,835)" d="m0 0m-2 1h2l-2 4-6 2-6 1-1-3z" fill="#DACDE1"/>
<path transform="translate(140,213)" d="m0 0 4 1-19 7-3-1 4-3 8-2z" fill="#D4C8DC"/>
<path transform="translate(835,333)" d="m0 0 4 1v5l-2 1h-7l2-5z" fill="#DACDE1"/>
<path transform="translate(199,268)" d="m0 0 2 2 5 12 2 5-5 2 1-3-3-9z" fill="#AFB7C7"/>
<path transform="translate(829,332)" d="m0 0h11l-1 4v-2l-4-1-1 2-5 5z" fill="#CBCDDB"/>
<path transform="translate(178,199)" d="m0 0 3 1-3 3 1 7 1 6-3-4-2-5v-6z" fill="#B0CBD7"/>
<path transform="translate(305,152)" d="m0 0h5l-2 2-14 5h-2v-2l4-3 8-1z" fill="#B2B4C4"/>
<path transform="translate(357,133)" d="m0 0 2 2-13 5-3-1 9-5z" fill="#AFB1C1"/>
<path transform="translate(446,201)" d="m0 0 6 1-3 2-8 3-3-1h2l1-3z" fill="#D5DDE6"/>
<path transform="translate(169,301)" d="m0 0 1 3-7 3-4-2z" fill="#D8CDE0"/>
<path transform="translate(202,286)" d="m0 0 3 1-6 4-6 1 5-5z" fill="#DA36C8"/>
<path transform="translate(476,190)" d="m0 0h3v3l-11 4v-2l5-3z" fill="#CADDE8"/>
<path transform="translate(352,235)" d="m0 0 1 2h-3v2l-7 2-1-2 1-2z" fill="#D8C0DD"/>
</svg>
